<?xml version="1.0" encoding="UTF-8"?>
<svg width="1019px" height="746px" viewBox="0 0 1019 746" version="1.1" xmlns="http://www.w3.org/2000/svg" xmlns:xlink="http://www.w3.org/1999/xlink">
    <!-- Generator: Sketch 43.2 (39069) - http://www.bohemiancoding.com/sketch -->
    <title>logo_puste</title>
    <desc>Created with Sketch.</desc>
    <defs></defs>
    <g id="Page-1" stroke="none" stroke-width="1" fill="none" fill-rule="evenodd">
        <g id="logo_puste" transform="translate(0.000000, -1.000000)" fill-rule="nonzero" fill="#FFFFFF">
            <g id="Group" transform="translate(509.800000, 373.300000) scale(-1, 1) rotate(-180.000000) translate(-509.800000, -373.300000) translate(0.800000, 0.300000)">
                <path d="M185.7,744.2 C157.9,740.7 132.5,727.8 112.7,707.2 C89,682.5 78,655.6 77.9,621.8 C77.8,587.2 89,559.1 112.6,534.8 C136,510.9 162.7,499 196,497.6 C227.4,496.3 255.1,505.1 278.4,523.9 L285.1,529.3 L280.3,533.8 C277.7,536.3 275.1,538.3 274.6,538.3 C274.1,538.2 270.8,536 267.2,533.3 C246.2,517.2 217.3,509.2 190.4,512.1 C163.9,514.9 144.9,523.8 125.7,542.4 C110.4,557.2 99.8,575 95,593.9 C93,601.7 92.7,605.2 92.8,621.8 C92.9,642.7 93.9,648.4 100.3,663.8 C110.3,687.9 134.6,712.2 158.7,722.2 C174,728.6 179.8,729.6 200.7,729.7 C217.3,729.8 220.8,729.5 228.6,727.5 C242.7,723.9 262.6,713.7 271.4,705.5 L274.1,703 L279.7,707.8 L285.3,712.6 L282,715.4 C275.4,721.2 259.2,731.4 251.4,734.8 C231.5,743.5 207.5,746.9 185.7,744.2 Z" id="Shape"></path>
                <path d="M312.2,621.3 L312.2,500.3 L319.2,500.3 L326.2,500.3 L326.2,559.7 L326.2,619.1 L329.5,623.9 C333.9,630.3 343.2,637.8 350.2,640.5 C358.6,643.7 372.1,644.1 381,641.4 C396.3,636.8 408.8,623.2 412.1,607.5 C412.8,604 413.2,585.2 413.2,551.3 L413.2,500.3 L420.2,500.3 L427.2,500.3 L427.2,552.6 C427.2,594.8 426.9,606.1 425.7,611.8 C421.1,633.5 405,650.4 383.7,655.8 C376.1,657.7 359.4,657.8 351.9,655.8 C345,654 336.1,649.6 330.7,645.3 L326.7,642.1 L326.4,692.2 L326.2,742.3 L319.2,742.3 L312.2,742.3 L312.2,621.3 Z" id="Shape"></path>
                <path d="M518.7,660.8 C489.1,655.2 464.8,634 455.1,605.3 C452.3,597 451.8,594.2 451.4,582.3 C451.1,571 451.3,567.4 453.1,560.1 C456.8,544.3 462.6,534 474.6,521.4 C491,504.4 509.7,496.3 532.7,496.2 C550.9,496.1 565.1,499.9 578.3,508.5 C584.7,512.5 603.2,530.1 603.2,532 C603.2,532.6 600.1,534.1 596.4,535.5 L589.5,537.9 L581.5,530.3 C566.2,515.8 552.7,510.8 530.7,511.5 C516.3,512 509.4,513.9 498.6,520.4 C491.2,524.8 479.6,536.4 475.3,543.6 C468.6,554.9 465,570.1 466,582.6 L466.3,586.3 L540.4,586.3 L614.5,586.3 L613.9,593.6 C611.5,621.8 590.6,647.5 561.9,657.4 C547.8,662.3 532.8,663.5 518.7,660.8 Z M548.7,645.8 C563.3,642.7 578.8,632.9 587.8,621 C592.1,615.3 598.2,603.8 598.2,601.3 C598.2,600.6 577,600.3 533.7,600.3 C487.6,600.3 469.2,600.6 469.2,601.4 C469.2,602 471.1,606.2 473.4,610.6 C479.5,622.4 491.6,634.4 503.3,640.1 C508,642.5 514.8,645 518.3,645.8 C526.8,647.6 540.1,647.6 548.7,645.8 Z" id="Shape"></path>
                <path d="M675.4,646.9 C671.9,645 666.6,641.5 663.6,639.2 C658.2,635.1 650.3,625.2 648.3,620.2 C647.6,618.5 647.3,622.4 647.3,633.6 L647.2,649.3 L640.2,649.3 L633.2,649.3 L633.2,574.8 L633.2,500.3 L640.2,500.3 L647.1,500.3 L647.4,547.6 C647.7,594.2 647.7,594.9 650,600.2 C655.7,613.6 667.7,626.9 679.3,632.7 C683.3,634.7 687.1,636.3 687.8,636.3 C688.6,636.3 689.2,636.6 689.2,637 C689.2,637.6 682.3,650.3 681.9,650.3 C681.8,650.3 678.9,648.7 675.4,646.9 Z" id="Shape"></path>
                <path d="M745.4,646.9 C741.9,645 736.6,641.5 733.6,639.2 C728.2,635.1 720.3,625.2 718.3,620.2 C717.6,618.5 717.3,622.4 717.3,633.6 L717.2,649.3 L710.2,649.3 L703.2,649.3 L703.2,574.8 L703.2,500.3 L710.2,500.3 L717.1,500.3 L717.4,547.6 C717.7,594.2 717.7,594.9 720,600.2 C725.7,613.6 737.7,626.9 749.3,632.7 C753.3,634.7 757.1,636.3 757.8,636.3 C758.6,636.3 759.2,636.6 759.2,637 C759.2,637.6 752.3,650.3 751.9,650.3 C751.8,650.3 748.9,648.7 745.4,646.9 Z" id="Shape"></path>
                <path d="M782.2,648.3 C782.2,647.7 794.6,620.6 809.8,588 C825.1,555.5 837.5,528.4 837.5,527.8 C837.5,527.3 829.1,508.8 818.7,486.8 C808.4,464.8 799.8,446 799.5,445 C799,443.4 799.6,443.2 806.7,443.5 L814.4,443.8 L861.3,544.3 C887.1,599.6 908.5,645.8 908.8,647.1 C909.4,649.2 909.2,649.3 902.4,649.3 C898,649.3 895.1,648.8 894.4,648.1 C893.9,647.4 882.8,624.4 869.9,597 C857,569.6 846.1,547.1 845.8,547 C845.4,546.9 834.3,569.9 821,598.1 L796.9,649.3 L789.5,649.3 C785.2,649.3 782.2,648.9 782.2,648.3 Z" id="Shape"></path>
                <path d="M976.7,453.6 C957.1,448.7 930.1,438.7 912,429.7 C899.6,423.5 897.4,423.1 862.7,421.3 C776.1,416.9 659.5,416.3 577.7,419.9 L564.7,420.4 L573.9,415.5 C591,406.2 605.8,395.9 618.5,384.4 L625.2,378.3 L651.7,378.3 L678.2,378.3 L678.2,338.3 C678.2,298.4 678.2,298.3 680.6,291.9 C682,288.3 684.4,280 686.1,273.4 C696.7,231.1 694.5,182.1 680.2,143.3 L677.2,135.2 L677.2,108 C677.2,76.3 675.5,7.7 674.6,5.1 C674.1,3.4 675.8,3.3 706.8,3.3 L739.5,3.3 L738.8,16.6 C734.8,98.8 732.2,214.9 732.2,315.2 L732.2,378.6 L779,377.9 C804.7,377.6 828.5,377 831.8,376.7 L838,376 L832.6,369.4 C810.4,341.9 804.2,310.1 816.2,284.5 C826.5,262.4 848.1,244.3 895.4,218 C937.4,194.6 950.6,182.9 956.4,164 C958.1,158.3 958.4,155.3 958,146.7 C957.6,136.9 957.3,135.8 953.2,127.6 C943.3,107.5 918.7,89.3 881.8,74.8 C869.4,70 844.3,62.4 833.6,60.3 C830.2,59.6 827,58.8 826.3,58.4 C825.5,57.9 827.5,51.1 832.8,35.7 C837,23.7 840.6,13.7 840.7,13.5 C841.2,12.9 861.7,18.5 873.9,22.4 C948,46.5 999.9,89.3 1014.9,138.8 C1017.3,146.9 1017.6,149.3 1017.6,163.3 C1017.6,177.5 1017.4,179.5 1014.9,186.8 C1009.6,202.8 999.3,215.9 981.5,229.2 C972.1,236.3 958.9,244.4 912.9,271.5 C891,284.4 879.6,294.4 873.2,306.5 C862.2,327 872.3,351.6 899.9,371.2 C918.3,384.4 954.6,399.6 981.2,405.4 C987,406.6 992.1,408 992.6,408.4 C993.3,409.1 989.3,425.3 982.6,449.1 C981.1,454.2 980.7,454.6 976.7,453.6 Z" id="Shape"></path>
                <path d="M1.6,416.6 C3.1,399.9 4.4,268.9 3.8,184.3 C3.2,93.5 1.8,12.6 0.6,4.4 L0,0 L16.9,0.6 C95.3,3.6 185.5,29.8 248.9,68 C262.3,76.2 285.2,92 285.2,93.3 C285.2,93.7 281.9,99.6 278,106.4 C274,113.3 268.9,122.9 266.8,127.8 C264.6,132.8 262.7,137 262.6,137.2 C262.4,137.4 259,134.5 255,130.8 C218.7,97.2 162.4,70.9 101.7,59.3 C92.5,57.6 62.4,53.3 59.2,53.3 C58.6,53.3 58.2,112.4 58.2,215.8 L58.2,378.3 L70.6,378.3 C102.6,378.3 146.5,374.6 173.1,369.7 C215.3,361.9 249.8,348.6 272,331.7 L276.4,328.3 L281.7,336.7 C287.9,346.6 296.4,358.1 302.9,365.3 C308.5,371.5 309.5,370.4 287.7,381.3 C261.5,394.2 232.3,403.6 196.2,410.7 C149.3,419.8 105.3,423.3 35.3,423.3 L0.9,423.3 L1.6,416.6 Z" id="Shape"></path>
                <path d="M446.7,415.3 C404.4,410.8 366,392.2 335.2,361.3 C306.8,333 289,298.6 282.7,260.3 C280.5,246.8 279.7,221.1 281.1,207.1 C284.7,169.8 298.7,135.3 321.2,107.8 C329.9,97.2 349.6,78.6 360.2,71 C378.8,57.8 406.1,46 429.1,41.3 C452.8,36.5 486.7,36.5 510.3,41.3 C533.2,46 560.4,57.7 579.2,71 C591.7,79.9 616.7,104.8 625.5,117.3 C639,136.5 650.5,162.9 655.2,186 C659.7,207.5 660.3,238.6 656.7,260.3 C650.4,298.6 632.6,333 604.2,361.3 C576.5,389.1 543.9,406.3 505.7,413.4 C493.2,415.7 460.3,416.8 446.7,415.3 Z M498.9,399.3 C542.3,391.4 581.1,368.6 606.6,335.9 C633.7,301.2 648.3,253.7 644.3,213.5 C641.8,189.2 635.8,168.3 625.1,147.3 C615.9,129.3 607.1,117.2 593.2,103.3 C579,89.1 566.9,80.4 548.7,71.3 C505.4,49.7 460.7,46.2 415.4,60.8 C401.3,65.4 379.1,76.6 367.3,85 C326.3,114.4 300.5,160.4 295.1,213.5 C291.1,253.7 305.7,301.2 332.8,335.9 C360.9,372 405.6,396.2 453.7,401.3 C465.1,402.5 486.3,401.6 498.9,399.3 Z" id="Shape"></path>
            </g>
        </g>
    </g>
</svg>