<?xml version="1.0" encoding="UTF-8"?>
<svg width="93px" height="86px" viewBox="0 0 93 86" version="1.1" xmlns="http://www.w3.org/2000/svg" xmlns:xlink="http://www.w3.org/1999/xlink">
    <!-- Generator: Sketch 43.2 (39069) - http://www.bohemiancoding.com/sketch -->
    <title>5</title>
    <desc>Created with Sketch.</desc>
    <defs></defs>
    <g id="web-page" stroke="none" stroke-width="1" fill="none" fill-rule="evenodd">
        <path d="M32.1977431,75.6171875 C32.1977431,78.2213672 31.2537421,80.4674385 29.3657118,82.3554688 C27.4776816,84.243499 25.2316103,85.1875 22.6274306,85.1875 L9.93211809,85.1875 C7.3279384,85.1875 5.08186712,84.243499 3.19383684,82.3554688 C1.30580657,80.4674385 0.361805592,78.2213672 0.361805592,75.6171875 L0.361805592,44.953125 C0.361805592,42.2187363 1.30580657,39.9075615 3.19383684,38.0195312 C5.08186712,36.131501 7.3279384,35.1875 9.93211809,35.1875 L22.6274306,35.1875 C25.2316103,35.1875 27.4776816,36.131501 29.3657118,38.0195312 C31.2537421,39.9075615 32.1977431,42.2187363 32.1977431,44.953125 L32.1977431,75.6171875 Z M26.7289931,44.953125 C26.7289931,43.7812441 26.3058202,42.8046914 25.4594618,42.0234375 C24.6131034,41.2421836 23.6691025,40.8515625 22.6274306,40.8515625 L9.93211809,40.8515625 C8.76023723,40.8515625 7.7836845,41.2421836 7.00243059,42.0234375 C6.22117669,42.8046914 5.83055559,43.7812441 5.83055559,44.953125 L5.83055559,75.6171875 C5.83055559,76.6588594 6.22117669,77.6028604 7.00243059,78.4492188 C7.7836845,79.2955771 8.76023723,79.71875 9.93211809,79.71875 L22.6274306,79.71875 C23.6691025,79.71875 24.6131034,79.2955771 25.4594618,78.4492188 C26.3058202,77.6028604 26.7289931,76.6588594 26.7289931,75.6171875 L26.7289931,44.953125 Z M18.3305556,73.078125 C18.3305556,74.6406328 17.5493134,75.421875 15.9868056,75.421875 L15.2055556,75.421875 C13.6430478,75.421875 12.8618056,74.6406328 12.8618056,73.078125 L12.8618056,72.296875 C12.8618056,70.7343672 13.6430478,69.953125 15.2055556,69.953125 L15.9868056,69.953125 C16.5076415,69.953125 17.0284697,70.2135391 17.5493056,70.734375 C18.0701415,71.2552109 18.3305556,71.7760391 18.3305556,72.296875 L18.3305556,73.078125 Z M53.0961806,85.3828125 C50.3617919,85.3828125 48.0506171,85.187502 46.1625868,84.796875 C44.2745566,84.406248 42.3540029,83.2994883 40.4008681,81.4765625 C38.4477333,79.6536367 37.0805595,77.1145996 36.2993056,73.859375 L36.2993056,73.6640625 C36.4295146,73.5338535 36.4946181,73.4036465 36.4946181,73.2734375 L36.4946181,37.140625 L36.8852431,35.7734375 C37.406079,34.0807207 39.6847021,30.1745098 43.7211806,24.0546875 C47.2368232,18.1952832 49.1248251,14.9401074 49.3852431,14.2890625 C50.296706,11.9453008 50.7524306,8.75522852 50.7524306,4.71875 C50.6222216,3.54686914 51.0779462,2.63541992 52.1196181,1.984375 L52.7055556,1.59375 C53.2263915,1.33333203 53.9099784,1.10546973 54.7563368,0.91015625 C55.6026952,0.714842773 56.4164892,0.6171875 57.1977431,0.6171875 C58.8904599,0.6171875 60.4529443,1.13801562 61.8852431,2.1796875 C67.4842294,5.82553906 69.958163,10.7734062 69.3071181,17.0234375 C68.9164911,19.2369902 68.0701454,21.7109238 66.7680556,24.4453125 C66.6378466,24.7057305 66.3448808,25.3893174 65.8891493,26.4960938 C65.4334179,27.6028701 65.1404521,28.4166641 65.0102431,28.9375 L65.0102431,30.6953125 C68.9165126,30.9557305 71.8461708,31.0859375 73.7993056,31.0859375 L82.7836806,31.0859375 C85.9086962,31.4765645 88.3826298,32.9739453 90.2055556,35.578125 C92.1586904,37.9218867 92.9399325,40.7213379 92.5493056,43.9765625 C92.1586786,46.8411602 90.7264013,49.3150938 88.2524306,51.3984375 C89.2941025,53.2213633 89.6847236,55.2395723 89.4243056,57.453125 C89.0336786,60.0573047 87.9269189,62.1406172 86.1039931,63.703125 L86.1039931,63.8984375 C86.755038,65.3307363 86.9503486,66.8932207 86.6899306,68.5859375 C86.2993036,70.9296992 85.1925439,72.8177012 83.3696181,74.25 C83.890454,75.2916719 84.0206611,76.5937422 83.7602431,78.15625 C83.4998251,81.1510566 81.8722372,83.1692656 78.8774306,84.2109375 C77.4451318,84.8619824 75.2967157,85.1875 72.4321181,85.1875 L69.3071181,85.1875 C68.3956552,85.057291 66.8331708,84.9921875 64.6196181,84.9921875 C63.8383642,84.9921875 62.7316044,85.0247393 61.2993056,85.0898438 C59.8670068,85.1549482 58.8253505,85.1875 58.1743056,85.1875 C57.5232607,85.1875 56.6443632,85.2200518 55.5375868,85.2851562 C54.4308105,85.3502607 53.6170165,85.3828125 53.0961806,85.3828125 Z M41.9633681,72.8828125 C42.614413,75.6172012 43.7537245,77.4400996 45.3813368,78.3515625 C47.0089491,79.2630254 49.6456415,79.71875 53.2914931,79.71875 L58.1743056,79.71875 C59.4763954,79.588541 61.6248115,79.5234375 64.6196181,79.5234375 L72.4321181,79.5234375 C74.5154618,79.5234375 75.8175322,79.3932305 76.3383681,79.1328125 C76.4685771,79.1328125 76.6638876,79.067709 76.9243056,78.9375 C77.8357685,78.677082 78.2914931,78.1562539 78.2914931,77.375 C78.2914931,76.8541641 78.2263896,76.463543 78.0961806,76.203125 C77.4451357,75.0312441 77.3149286,73.8593809 77.7055556,72.6875 C78.0961825,71.6458281 78.6821142,70.7994824 79.4633681,70.1484375 C80.374831,69.7578105 80.9607626,68.9765684 81.2211806,67.8046875 C81.2211806,67.0234336 81.1560771,66.437502 81.0258681,66.046875 C80.5050322,65.3958301 80.3097216,64.3541738 80.4399306,62.921875 C80.5701396,61.4895762 81.0909677,60.4479199 82.0024306,59.796875 C83.0441025,59.0156211 83.6951376,58.0390684 83.9555556,56.8671875 C84.0857646,55.6953066 83.8253505,54.6536504 83.1743056,53.7421875 C82.5232607,52.8307246 82.3605019,51.6588613 82.6860243,50.2265625 C83.0115468,48.7942637 83.6300302,47.8177109 84.5414931,47.296875 C85.9737919,46.2552031 86.8201376,44.8880293 87.0805556,43.1953125 C87.3409736,41.5025957 86.9503525,40.0703184 85.9086806,38.8984375 C84.8670087,37.7265566 83.5649384,37.010418 82.0024306,36.75 C81.8722216,36.619791 81.6118075,36.5546875 81.2211806,36.5546875 L73.7993056,36.5546875 C70.153454,36.5546875 66.4425536,36.359377 62.6664931,35.96875 L61.8852431,35.96875 C61.3644072,35.838541 60.713372,35.5130234 59.9321181,34.9921875 C59.5414911,34.3411426 59.3461806,33.6250039 59.3461806,32.84375 L59.3461806,30.6953125 C59.3461806,29.2630137 59.4763876,28.2213574 59.7368056,27.5703125 C59.9972236,26.0078047 60.6482587,24.2500098 61.6899306,22.296875 C62.8618115,19.8229043 63.5128466,17.8697988 63.6430556,16.4375 C64.0336825,12.5312305 62.4060947,9.27605469 58.7602431,6.671875 C58.2394072,6.41145703 57.3930615,6.28125 56.2211806,6.28125 C56.2211806,10.1875195 55.7003525,13.5077988 54.6586806,16.2421875 C54.1378447,17.5442773 51.9894286,21.1900742 48.2133681,27.1796875 C44.8279345,32.1276289 42.8097255,35.5781152 42.1586806,37.53125 L42.1586806,37.921875 L41.9633681,38.703125 L41.9633681,72.8828125 Z M65.4008681,75.421875 C65.2706591,75.421875 65.2055556,75.4869785 65.2055556,75.6171875 C65.2055556,75.7473965 65.1404521,75.8125 65.0102431,75.8125 C64.0987802,75.8125 63.6430556,75.3567754 63.6430556,74.4453125 C63.6430556,73.6640586 64.0987802,73.2734375 65.0102431,73.2734375 C66.3123329,73.2734375 66.9633681,73.7291621 66.9633681,74.640625 L66.7680556,74.640625 L66.7680556,74.8359375 C66.6378466,75.2265645 66.182122,75.421875 65.4008681,75.421875 Z M55.2446181,76.3984375 C51.3383486,76.3984375 48.4086904,75.1614707 46.4555556,72.6875 C45.8045107,72.0364551 45.8045107,71.3854199 46.4555556,70.734375 C47.2368095,70.2135391 47.8878447,70.2786426 48.4086806,70.9296875 C49.7107704,72.3619863 51.2081513,73.2408838 52.9008681,73.5664062 C54.5935849,73.8919287 56.6117939,73.859377 58.9555556,73.46875 L61.1039931,73.46875 C62.015456,73.208332 62.4711806,73.5989531 62.4711806,74.640625 C62.4711806,75.4218789 62.0805595,75.942707 61.2993056,76.203125 L59.1508681,76.203125 C58.2394052,76.333334 56.9373349,76.3984375 55.2446181,76.3984375 Z" id="5" fill="#352576"></path>
    </g>
</svg>
