<?xml version="1.0" encoding="UTF-8"?>
<svg width="66px" height="90px" viewBox="0 0 66 90" version="1.1" xmlns="http://www.w3.org/2000/svg" xmlns:xlink="http://www.w3.org/1999/xlink">
    <!-- Generator: Sketch 43.2 (39069) - http://www.bohemiancoding.com/sketch -->
    <title>c</title>
    <desc>Created with Sketch.</desc>
    <defs></defs>
    <g id="web-page" stroke="none" stroke-width="1" fill="none" fill-rule="evenodd">
        <path d="M44.71875,21.7578125 C48.1041836,25.0130371 49.796875,28.919248 49.796875,33.4765625 C49.796875,38.033877 48.1367354,41.9400879 44.8164062,45.1953125 C41.4960771,48.4505371 37.5573145,50.078125 33,50.078125 C28.4426855,50.078125 24.5039229,48.4505371 21.1835938,45.1953125 C17.8632646,41.9400879 16.203125,38.033877 16.203125,33.4765625 C16.203125,28.919248 17.8632646,24.9804854 21.1835938,21.6601562 C24.5039229,18.3398271 28.4426855,16.6796875 33,16.6796875 C37.5573145,16.6796875 41.4635254,18.3723789 44.71875,21.7578125 Z M42.765625,43.2421875 C45.5000137,40.5077988 46.8671875,37.252623 46.8671875,33.4765625 C46.8671875,29.700502 45.5000137,26.4453262 42.765625,23.7109375 C40.0312363,20.9765488 36.7760605,19.609375 33,19.609375 C29.2239395,19.609375 25.9687637,20.9765488 23.234375,23.7109375 C20.4999863,26.4453262 19.1328125,29.700502 19.1328125,33.4765625 C19.1328125,37.252623 20.4999863,40.5077988 23.234375,43.2421875 C25.9687637,45.9765762 29.2239395,47.34375 33,47.34375 C36.7760605,47.34375 40.0312363,45.9765762 42.765625,43.2421875 Z M25.578125,31.71875 C25.578125,32.6302129 25.1224004,33.0859375 24.2109375,33.0859375 C23.2994746,33.0859375 22.84375,32.6302129 22.84375,31.71875 C22.84375,30.6770781 22.9088535,29.8958359 23.0390625,29.375 C23.2994805,28.4635371 23.8854121,28.1380195 24.796875,28.3984375 C25.7083379,28.6588555 26.0338555,29.2447871 25.7734375,30.15625 C25.6432285,30.546877 25.578125,31.0677051 25.578125,31.71875 Z M33,40.8984375 C33.9114629,40.8984375 34.3671875,41.3541621 34.3671875,42.265625 C34.3671875,43.1770879 33.9114629,43.6328125 33,43.6328125 C30.7864473,43.6328125 28.7682383,42.9817773 26.9453125,41.6796875 C25.1223867,40.3775977 23.8854199,38.6849062 23.234375,36.6015625 C22.973957,35.8203086 23.2994746,35.234377 24.2109375,34.84375 C25.1224004,34.583332 25.708332,34.9088496 25.96875,35.8203125 C27.0104219,39.2057461 29.3541484,40.8984375 33,40.8984375 Z M64.640625,36.9921875 C65.8125059,38.8151133 66.0729199,40.5078047 65.421875,42.0703125 C65.031248,44.0234473 63.9895918,45.3906211 62.296875,46.171875 L60.34375,47.1484375 C58.9114512,47.6692734 58.3255195,48.7109297 58.5859375,50.2734375 L58.5859375,52.421875 C58.5859375,53.2031289 58.520834,53.7890605 58.390625,54.1796875 L63.2734375,81.1328125 C63.4036465,81.3932305 63.46875,81.6536445 63.46875,81.9140625 C63.46875,83.6067793 62.5573008,84.453125 60.734375,84.453125 L59.953125,84.453125 L47.84375,81.328125 L37.6875,88.75 C36.9062461,89.140627 36.385418,89.3359375 36.125,89.3359375 C35.994791,89.3359375 35.7994805,89.3033857 35.5390625,89.2382812 C35.2786445,89.1731768 35.083334,89.140625 34.953125,89.140625 C34.1718711,88.749998 33.651043,88.0338594 33.390625,86.9921875 L29.6796875,66.875 L26.5546875,84.2578125 C26.2942695,85.1692754 25.7083379,85.8203105 24.796875,86.2109375 C24.536457,86.3411465 24.2109395,86.40625 23.8203125,86.40625 C23.2994766,86.40625 22.7786484,86.276043 22.2578125,86.015625 L15.8125,81.328125 L8.390625,83.4765625 C7.34895313,83.7369805 6.43750391,83.5416699 5.65625,82.890625 C5.00520508,81.9791621 4.74479102,81.1328164 4.875,80.3515625 L9.171875,57.109375 C7.86978516,55.5468672 7.28385352,53.9843828 7.4140625,52.421875 L7.4140625,50.2734375 C7.67448047,48.7109297 7.08854883,47.6692734 5.65625,47.1484375 L3.703125,46.171875 C2.0104082,45.3906211 0.968751953,44.0234473 0.578125,42.0703125 C-0.0729199219,40.5078047 0.187494141,38.8151133 1.359375,36.9921875 L2.53125,35.234375 C3.31250391,33.9322852 3.31250391,32.7604219 2.53125,31.71875 L1.359375,29.765625 C0.317703125,28.0729082 0.0572890625,26.3802168 0.578125,24.6875 C0.968751953,22.8645742 2.0104082,21.5625039 3.703125,20.78125 L5.65625,19.8046875 C7.08854883,18.8932246 7.67448047,17.8515684 7.4140625,16.6796875 L7.4140625,14.53125 C7.28385352,12.7083242 7.86978516,11.1458398 9.171875,9.84375 C10.3437559,8.54166016 11.9713437,7.890625 14.0546875,7.890625 L16.203125,8.0859375 C17.5052148,8.0859375 18.5468711,7.43490234 19.328125,6.1328125 L20.3046875,4.1796875 C21.6067773,1.83592578 23.4947793,0.6640625 25.96875,0.6640625 C27.2708398,0.6640625 28.3775996,1.05468359 29.2890625,1.8359375 L31.2421875,3.0078125 C31.6328145,3.26823047 32.2187461,3.3984375 33,3.3984375 C33.7812539,3.3984375 34.3671855,3.26823047 34.7578125,3.0078125 L36.7109375,1.8359375 C37.6224004,1.05468359 38.7291602,0.6640625 40.03125,0.6640625 C42.5052207,0.6640625 44.3932227,1.83592578 45.6953125,4.1796875 L46.671875,6.1328125 C47.3229199,7.30469336 48.3645762,7.890625 49.796875,7.890625 L51.9453125,7.890625 C53.8984473,7.63020703 55.5260352,8.28124219 56.828125,9.84375 C58.1302148,11.1458398 58.7161465,12.7083242 58.5859375,14.53125 L58.5859375,16.6796875 C58.3255195,17.8515684 58.9114512,18.8932246 60.34375,19.8046875 L62.296875,20.78125 C63.9895918,21.5625039 65.031248,22.8645742 65.421875,24.6875 C65.9427109,26.3802168 65.6822969,28.0729082 64.640625,29.765625 L63.46875,31.71875 C62.6874961,32.7604219 62.6874961,33.9322852 63.46875,35.234375 L64.640625,36.9921875 Z M21.8671875,78.7890625 L24.2109375,65.8984375 C24.0807285,65.7682285 23.885418,65.703125 23.625,65.703125 C23.364582,65.703125 23.1692715,65.6380215 23.0390625,65.5078125 L23.0390625,65.3125 C22.2578086,64.921873 21.6067734,64.4661484 21.0859375,63.9453125 C21.0859375,63.8151035 21.020834,63.75 20.890625,63.75 C20.630207,63.2291641 20.4348965,62.9036465 20.3046875,62.7734375 L19.328125,60.8203125 C19.197916,60.5598945 19.0026055,60.2994805 18.7421875,60.0390625 C17.9609336,59.2578086 17.1145879,58.8671875 16.203125,58.8671875 L14.4453125,59.0625 L11.125,76.8359375 L15.6171875,75.6640625 C15.7473965,75.6640625 15.942707,75.598959 16.203125,75.46875 L16.3984375,75.46875 C17.0494824,75.46875 17.5703105,75.6640605 17.9609375,76.0546875 L21.8671875,78.7890625 Z M48.0390625,75.6640625 L57.21875,78.203125 L53.703125,58.8671875 C53.1822891,59.1276055 52.7265645,59.2578125 52.3359375,59.2578125 L49.9921875,59.453125 L49.796875,59.453125 C49.0156211,59.453125 48.2994824,59.6484355 47.6484375,60.0390625 C47.2578105,60.2994805 46.932293,60.624998 46.671875,61.015625 L45.6953125,62.7734375 C44.3932227,65.1171992 42.5052207,66.2890625 40.03125,66.2890625 C38.7291602,66.2890625 37.6224004,65.8984414 36.7109375,65.1171875 L34.7578125,63.9453125 L38.078125,81.71875 L45.6953125,76.0546875 C46.3463574,75.5338516 47.1275996,75.4036445 48.0390625,75.6640625 Z M58.78125,38.1640625 C56.6979062,34.9088379 56.6979062,31.7187656 58.78125,28.59375 L59.953125,26.8359375 C60.083334,26.7057285 60.1484375,26.510418 60.1484375,26.25 C60.1484375,26.119791 60.0182305,25.9244805 59.7578125,25.6640625 L57.8046875,24.6875 C56.3723887,23.9062461 55.1679736,22.7343828 54.1914062,21.171875 C53.2148389,19.6093672 52.791666,18.0468828 52.921875,16.484375 L53.1171875,14.140625 L52.921875,13.75 L52.921875,13.5546875 L52.53125,13.359375 L52.3359375,13.359375 L49.9921875,13.5546875 C46.085918,13.5546875 43.3515703,11.9270996 41.7890625,8.671875 L40.8125,6.71875 C40.682291,6.45833203 40.421877,6.328125 40.03125,6.328125 L39.640625,6.5234375 L37.6875,7.6953125 C36.3854102,8.47656641 34.8229258,8.8671875 33,8.8671875 C31.1770742,8.8671875 29.5494863,8.47656641 28.1171875,7.6953125 L26.359375,6.5234375 C26.229166,6.39322852 26.098959,6.328125 25.96875,6.328125 C25.578123,6.328125 25.317709,6.45833203 25.1875,6.71875 L24.2109375,8.671875 C23.5598926,10.1041738 22.4205811,11.3085889 20.7929688,12.2851562 C19.1653564,13.2617236 17.5703203,13.6848965 16.0078125,13.5546875 L13.6640625,13.5546875 C13.4036445,13.5546875 13.208334,13.619791 13.078125,13.75 L12.8828125,14.3359375 L13.078125,16.484375 C13.208334,18.0468828 12.7851611,19.6093672 11.8085938,21.171875 C10.8320264,22.7343828 9.62761133,23.9062461 8.1953125,24.6875 L6.2421875,25.6640625 C5.98176953,25.9244805 5.8515625,26.119791 5.8515625,26.25 L6.046875,26.8359375 L7.21875,28.59375 C9.30209375,31.7187656 9.30209375,34.9088379 7.21875,38.1640625 L6.046875,40.1171875 C5.91666602,40.2473965 5.8515625,40.442707 5.8515625,40.703125 C5.8515625,40.833334 5.98176953,41.0286445 6.2421875,41.2890625 L8.1953125,42.265625 C9.62761133,42.9166699 10.8320264,44.0559814 11.8085938,45.6835938 C12.7851611,47.3112061 13.208334,48.9062422 13.078125,50.46875 L12.8828125,52.6171875 C12.8828125,52.8776055 12.947916,53.072916 13.078125,53.203125 C13.078125,53.333334 13.1432285,53.3984375 13.2734375,53.3984375 L13.46875,53.3984375 L13.6640625,53.59375 L16.0078125,53.3984375 C17.5703203,53.2682285 19.1653564,53.6914014 20.7929688,54.6679688 C22.4205811,55.6445361 23.5598926,56.8489512 24.2109375,58.28125 L25.1875,60.234375 C25.447918,60.625002 25.8385391,60.6901055 26.359375,60.4296875 L28.1171875,59.2578125 C29.0286504,58.8671855 29.8749961,58.541668 30.65625,58.28125 L30.8515625,58.28125 C30.9817715,58.151041 31.1119785,58.0859375 31.2421875,58.0859375 L32.21875,58.0859375 C32.348959,57.9557285 32.5442695,57.890625 32.8046875,57.890625 L33.5859375,57.890625 L33.78125,58.0859375 C34.4322949,58.0859375 34.8880195,58.151041 35.1484375,58.28125 L35.34375,58.28125 C35.604168,58.28125 35.7994785,58.3463535 35.9296875,58.4765625 C36.1901055,58.4765625 36.385416,58.541666 36.515625,58.671875 L36.90625,58.671875 L37.296875,58.8671875 C37.557293,58.9973965 37.6875,59.1276035 37.6875,59.2578125 L39.640625,60.4296875 C39.770834,60.5598965 39.901041,60.625 40.03125,60.625 C40.421877,60.625 40.682291,60.494793 40.8125,60.234375 L41.7890625,58.28125 C42.4401074,56.8489512 43.5794189,55.6770879 45.2070312,54.765625 C46.8346436,53.8541621 48.4296797,53.463541 49.9921875,53.59375 L52.3359375,53.7890625 L52.53125,53.7890625 L52.921875,53.3984375 L53.1171875,52.8125 L52.921875,50.46875 C52.791666,48.9062422 53.2148389,47.3112061 54.1914062,45.6835938 C55.1679736,44.0559814 56.3723887,42.9166699 57.8046875,42.265625 L59.7578125,41.2890625 C60.0182305,41.0286445 60.1484375,40.833334 60.1484375,40.703125 C60.1484375,40.442707 60.083334,40.2473965 59.953125,40.1171875 L58.78125,38.1640625 Z" id="c" fill="#352576"></path>
    </g>
</svg>
