<?xml version="1.0" encoding="UTF-8"?>
<svg width="91px" height="92px" viewBox="0 0 91 92" version="1.1" xmlns="http://www.w3.org/2000/svg" xmlns:xlink="http://www.w3.org/1999/xlink">
    <!-- Generator: Sketch 43.2 (39069) - http://www.bohemiancoding.com/sketch -->
    <title>t</title>
    <desc>Created with Sketch.</desc>
    <defs></defs>
    <g id="web-page" stroke="none" stroke-width="1" fill="none" fill-rule="evenodd">
        <path d="M90.5727431,53.8125 C90.5727431,59.2812773 88.7498447,64.8801797 85.1039931,70.609375 C81.4581415,76.3385703 77.1613095,79.5937461 72.2133681,80.375 C71.3019052,87.6667031 66.6144521,91.3125 58.1508681,91.3125 L13.6196181,91.3125 C8.28104973,91.3125 4.73290813,90.108085 2.97508684,87.6992188 C1.21726555,85.2903525 0.338368092,81.3515898 0.338368092,75.8828125 L0.338368092,36.625 C0.338368092,35.0624922 1.18471379,34.28125 2.87743059,34.28125 L69.6743056,34.28125 C71.6274404,34.28125 72.6039931,35.0624922 72.6039931,36.625 L72.6039931,41.3125 C75.0779638,41.3125 77.1938281,41.442707 78.9516493,41.703125 C80.7094706,41.963543 82.5649208,42.4843711 84.5180556,43.265625 C86.4711904,44.0468789 87.9685712,45.3163975 89.0102431,47.0742188 C90.051915,48.83204 90.5727431,51.0781113 90.5727431,53.8125 Z M66.9399306,75.8828125 L66.9399306,39.75 L5.80711809,39.75 L5.80711809,75.8828125 C5.80711809,80.179709 6.23029094,82.8815049 7.07664934,83.9882812 C7.92300774,85.0950576 10.1039755,85.6484375 13.6196181,85.6484375 L58.1508681,85.6484375 C61.7967197,85.6484375 64.172998,85.0299541 65.2797743,83.7929688 C66.3865507,82.5559834 66.9399306,79.919291 66.9399306,75.8828125 Z M72.6039931,74.515625 C75.8592177,73.6041621 78.7563241,70.9023662 81.2953993,66.4101562 C83.8344745,61.9179463 85.1039931,57.7187695 85.1039931,53.8125 C85.1039931,51.0781113 84.2250956,49.2552129 82.4672743,48.34375 C80.7094531,47.4322871 77.4217255,46.911459 72.6039931,46.78125 L72.6039931,74.515625 Z M10.8852431,60.2578125 C10.4946161,60.2578125 10.1690986,60.1276055 9.90868059,59.8671875 C9.64826262,59.6067695 9.51805559,59.281252 9.51805559,58.890625 C9.51805559,58.499998 9.64826262,58.1744805 9.90868059,57.9140625 C10.4295165,57.1328086 11.0805517,57.1328086 11.8618056,57.9140625 C12.1222236,58.1744805 12.2524306,58.499998 12.2524306,58.890625 C12.2524306,59.281252 12.1222236,59.6067695 11.8618056,59.8671875 C11.7315966,60.1276055 11.406079,60.2578125 10.8852431,60.2578125 Z M10.1039931,65.921875 C10.1039931,64.8802031 10.5597177,64.359375 11.4711806,64.359375 C12.3826435,64.359375 12.8383681,64.8802031 12.8383681,65.921875 L12.8383681,70.609375 C12.8383681,73.8645996 13.2615409,75.9153604 14.1078993,76.7617188 C14.9542577,77.6080771 17.0050185,78.03125 20.2602431,78.03125 C21.171706,78.03125 21.6274306,78.5520781 21.6274306,79.59375 C21.6274306,80.5052129 21.171706,80.9609375 20.2602431,80.9609375 C16.3539736,80.9609375 13.6847294,80.2122471 12.2524306,78.7148438 C10.8201318,77.2174404 10.1039931,74.5156445 10.1039931,70.609375 L10.1039931,65.921875 Z M26.9008681,17.875 C27.682122,18.5260449 28.0727431,19.1770801 28.0727431,19.828125 C28.0727431,21.1302148 26.9008798,22.8229063 24.5571181,24.90625 C23.1248193,26.0781309 22.9946122,27.3802012 24.1664931,28.8125 C24.817538,29.4635449 25.5336767,29.7890625 26.3149306,29.7890625 C27.0961845,29.7890625 27.6821161,29.593752 28.0727431,29.203125 C31.5883857,26.3385273 33.4763876,23.2786621 33.7368056,20.0234375 C33.7368056,17.6796758 32.6951493,15.5963633 30.6118056,13.7734375 C28.5284618,11.8203027 27.3240468,10.2903701 26.9985243,9.18359375 C26.6730019,8.07681738 27.0961747,6.74219531 28.2680556,5.1796875 C29.3097275,3.74738867 29.1144169,2.44531836 27.6821181,1.2734375 C25.9894013,0.361974609 24.687331,0.557285156 23.7758681,1.859375 C22.4737782,3.68230078 21.6925361,5.4400957 21.4321181,7.1328125 C21.1717001,8.8255293 21.4646659,10.4531172 22.3110243,12.015625 C23.1573827,13.5781328 23.8084179,14.6197891 24.2641493,15.140625 C24.7198808,15.6614609 25.5987782,16.5729102 26.9008681,17.875 Z M43.6977431,17.875 C44.478997,18.6562539 44.8696181,19.3072891 44.8696181,19.828125 C44.6092001,21.2604238 43.4373368,22.9531152 41.3539931,24.90625 C39.9216943,26.0781309 39.7914872,27.3802012 40.9633681,28.8125 C41.614413,29.4635449 42.3305517,29.7890625 43.1118056,29.7890625 C43.6326415,29.7890625 44.2185732,29.593752 44.8696181,29.203125 C48.5154697,26.2083184 50.3383681,23.1484531 50.3383681,20.0234375 C50.3383681,17.5494668 49.3618154,15.4661543 47.4086806,13.7734375 C45.3253368,11.8203027 44.1209218,10.2903701 43.7953993,9.18359375 C43.4698769,8.07681738 43.8279462,6.74219531 44.8696181,5.1796875 C46.041499,3.87759766 45.8461884,2.57552734 44.2836806,1.2734375 C42.8513818,0.361974609 41.5493115,0.557285156 40.3774306,1.859375 C39.0753407,3.68230078 38.2940986,5.4400957 38.0336806,7.1328125 C37.7732626,8.8255293 38.0662284,10.4205654 38.9125868,11.9179688 C39.7589452,13.4153721 40.4750839,14.4895801 41.0610243,15.140625 C41.6469648,15.7916699 42.5258622,16.7031191 43.6977431,17.875 Z" id="t" fill="#352576"></path>
    </g>
</svg>
