<?xml version="1.0" encoding="UTF-8"?>
<svg width="79px" height="94px" viewBox="0 0 79 94" version="1.1" xmlns="http://www.w3.org/2000/svg" xmlns:xlink="http://www.w3.org/1999/xlink">
    <!-- Generator: Sketch 43.2 (39069) - http://www.bohemiancoding.com/sketch -->
    <title>[</title>
    <desc>Created with Sketch.</desc>
    <defs></defs>
    <g id="web-page" stroke="none" stroke-width="1" fill="none" fill-rule="evenodd">
        <path d="M75.1977431,15.75 C75.978997,15.75 76.6951357,16.0104141 77.3461806,16.53125 C77.9972255,17.0520859 78.3227431,17.7031211 78.3227431,18.484375 L78.3227431,58.328125 C78.3227431,63.0156484 76.5323964,67.6054463 72.9516493,72.0976562 C69.3709023,76.5898662 64.8462079,80.3984219 59.3774306,83.5234375 C53.9086532,86.6484531 49.8071318,88.8619727 47.0727431,90.1640625 C44.3383544,91.4661523 41.9946279,92.5078086 40.0414931,93.2890625 C39.9112841,93.4192715 39.4555595,93.484375 38.6743056,93.484375 L38.2836806,93.484375 C13.1533466,84.1093281 0.588368092,72.3906953 0.588368092,58.328125 L0.588368092,18.484375 C0.588368092,16.6614492 1.36961028,15.75 2.93211809,15.75 C6.44776067,15.75 9.40997063,14.5130332 11.8188368,12.0390625 C14.2277031,9.5650918 15.4321181,6.63543359 15.4321181,3.25 C15.4321181,1.42707422 16.3435673,0.515625 18.1664931,0.515625 L59.3774306,0.515625 C60.0284755,0.515625 60.6469589,0.776039062 61.2328993,1.296875 C61.8188398,1.81771094 62.1118056,2.46874609 62.1118056,3.25 C62.1118056,6.63543359 63.4138759,9.5650918 66.0180556,12.0390625 C68.6222353,14.5130332 71.6821005,15.75 75.1977431,15.75 Z M72.8539931,21.0234375 C68.5570966,20.3723926 64.9438515,18.7448047 62.0141493,16.140625 C59.0844472,13.5364453 57.359204,10.1510625 56.8383681,5.984375 L39.4555556,5.984375 L39.4555556,44.8515625 L72.8539931,44.8515625 L72.8539931,21.0234375 Z M20.7055556,5.984375 C20.0545107,10.0208535 18.3618193,13.3736846 15.6274306,16.0429688 C12.8930419,18.7122529 9.70296965,20.3723926 6.05711809,21.0234375 L6.05711809,44.8515625 L36.7211806,44.8515625 L36.7211806,5.984375 L20.7055556,5.984375 Z M6.05711809,58.328125 C6.05711809,61.9739766 7.16387786,65.4570146 9.37743059,68.7773438 C11.5909833,72.0976729 14.5531933,74.9622275 18.2641493,77.3710938 C21.9751054,79.77996 25.2302812,81.6679619 28.0297743,83.0351562 C30.8292675,84.4023506 33.726374,85.6718691 36.7211806,86.84375 L36.7211806,47.5859375 L6.05711809,47.5859375 L6.05711809,58.328125 Z M39.4555556,87.8203125 C47.1378857,84.6952969 54.62479,80.4635684 61.9164931,75.125 C69.2081962,69.7864316 72.8539931,64.1875293 72.8539931,58.328125 L72.8539931,47.5859375 L39.4555556,47.5859375 L39.4555556,87.8203125 Z M25.7836806,73.953125 C26.4347255,74.213543 26.6300361,74.7994746 26.3696181,75.7109375 C25.9789911,76.2317734 25.5232665,76.4921875 25.0024306,76.4921875 C24.7420126,76.4921875 24.5467021,76.427084 24.4164931,76.296875 C18.9477157,73.4322773 14.9764013,69.7864805 12.5024306,65.359375 C12.1118036,64.4479121 12.3071142,63.796877 13.0883681,63.40625 C13.999831,62.8854141 14.5857626,63.0807246 14.8461806,63.9921875 C17.1899423,68.028666 20.8357392,71.3489453 25.7836806,73.953125 Z M12.6977431,58.328125 C12.9581611,59.2395879 12.6326435,59.8255195 11.7211806,60.0859375 L11.3305556,60.0859375 C10.6795107,60.0859375 10.2237861,59.7604199 9.96336809,59.109375 C9.83315911,58.5885391 9.70295208,58.1328145 9.57274309,57.7421875 C9.31232512,56.7005156 9.70294622,56.1796875 10.7446181,56.1796875 C11.525872,55.9192695 12.0467001,56.2447871 12.3071181,57.15625 L12.6977431,58.328125 Z" id="[" fill="#352576"></path>
    </g>
</svg>
