<?xml version="1.0" encoding="UTF-8"?>
<svg width="57px" height="95px" viewBox="0 0 57 95" version="1.1" xmlns="http://www.w3.org/2000/svg" xmlns:xlink="http://www.w3.org/1999/xlink">
    <!-- Generator: Sketch 43.2 (39069) - http://www.bohemiancoding.com/sketch -->
    <title>3</title>
    <desc>Created with Sketch.</desc>
    <defs></defs>
    <g id="web-page" stroke="none" stroke-width="1" fill="none" fill-rule="evenodd">
        <path d="M41.3691018,63.4046589 C43.3222366,65.0973757 44.2987893,67.1806882 44.2987893,69.6546589 L44.2987893,83.5218464 C44.2987893,85.8656082 43.4849954,87.8512654 41.8573831,89.4788777 C40.2297708,91.10649 38.2441135,91.9202839 35.9003518,91.9202839 L33.9472268,91.9202839 C33.2961819,93.7432097 32.0592151,94.6546589 30.2362893,94.6546589 L26.1347268,94.6546589 C24.44201,94.6546589 23.2701467,93.7432097 22.6191018,91.9202839 L20.6659768,91.9202839 C18.3222151,91.9202839 16.3365579,91.10649 14.7089456,89.4788777 C13.0813333,87.8512654 12.2675393,85.8656082 12.2675393,83.5218464 L12.2675393,69.6546589 C12.2675393,67.0504793 13.3091956,64.9020632 15.3925393,63.2093464 C11.0956428,58.91245 7.58005299,53.3135476 4.84566432,46.4124714 C2.11127565,39.5113953 0.744101821,33.2614578 0.744101821,27.6624714 C0.744101821,20.1103503 3.44589772,13.6325505 8.84957057,8.22887769 C14.2532434,2.82520484 20.7961467,0.123408943 28.4784768,0.123408943 C36.1608069,0.123408943 42.7037102,2.82520484 48.1073831,8.22887769 C53.5110559,13.6325505 56.2128518,20.1103503 56.2128518,27.6624714 C56.2128518,33.1312488 54.8131262,39.3811863 52.0136331,46.4124714 C49.2141399,53.4437566 45.6659983,59.1077625 41.3691018,63.4046589 Z M17.9316018,84.3030964 L38.6347268,75.3187214 L38.6347268,69.6546589 C38.6347268,69.264032 38.5696233,68.9385144 38.4394143,68.6780964 L17.9316018,77.6624714 L17.9316018,84.3030964 Z M20.6659768,66.9202839 C18.843051,66.9202839 17.9316018,67.8317332 17.9316018,69.6546589 L17.9316018,74.7327839 L35.7050393,66.9202839 L20.6659768,66.9202839 Z M6.40816432,27.6624714 C6.40816432,33.1312488 7.90554518,39.3160828 10.9003518,46.2171589 C13.8951585,53.1182351 17.4758518,58.1963093 21.6425393,61.4515339 L35.9003518,61.4515339 L35.7050393,61.0609089 C39.7415178,57.8056843 43.2245559,52.7601619 46.1542581,45.9241902 C49.0839602,39.0882185 50.5487893,33.0010398 50.5487893,27.6624714 C50.5487893,21.5426492 48.3678215,16.3343679 44.0058206,12.0374714 C39.6438196,7.74057496 34.4680901,5.59215894 28.4784768,5.59215894 C22.4888635,5.59215894 17.313134,7.74057496 12.9511331,12.0374714 C8.58913209,16.3343679 6.40816432,21.5426492 6.40816432,27.6624714 Z M35.9003518,86.4515339 C37.7232776,86.4515339 38.6347268,85.4749812 38.6347268,83.5218464 L38.6347268,78.2484089 L20.2753518,86.2562214 L20.4706643,86.4515339 L35.9003518,86.4515339 Z M27.8925393,29.0296589 C27.6321214,28.769241 27.5019143,28.4437234 27.5019143,28.0530964 C27.5019143,27.6624695 27.6321214,27.3369519 27.8925393,27.0765339 C28.5435842,26.425489 29.1946194,26.425489 29.8456643,27.0765339 C30.1060823,27.3369519 30.2362893,27.6624695 30.2362893,28.0530964 C30.2362893,28.4437234 30.1060823,28.769241 29.8456643,29.0296589 C29.5852464,29.2900769 29.2597288,29.4202839 28.8691018,29.4202839 C28.4784749,29.4202839 28.1529573,29.2900769 27.8925393,29.0296589 Z M30.4316018,33.5218464 L30.4316018,40.5530964 C30.4316018,41.4645593 29.9758772,41.9202839 29.0644143,41.9202839 C28.1529514,41.9202839 27.6972268,41.4645593 27.6972268,40.5530964 L27.6972268,33.5218464 C27.6972268,32.6103836 28.1529514,32.1546589 29.0644143,32.1546589 C29.9758772,32.1546589 30.4316018,32.6103836 30.4316018,33.5218464 Z M23.2050393,41.9202839 C22.6842034,41.9202839 22.3586858,41.7900769 22.2284768,41.5296589 L18.3222268,37.8187214 C17.9315999,37.1676765 17.9315999,36.5166414 18.3222268,35.8655964 C19.1034807,35.0843425 19.7545159,35.0843425 20.2753518,35.8655964 L24.1816018,39.5765339 C24.8326467,40.2275789 24.8326467,40.878614 24.1816018,41.5296589 C23.9211839,41.7900769 23.5956663,41.9202839 23.2050393,41.9202839 Z M34.7284768,41.9202839 C34.3378499,41.9202839 34.0123323,41.7900769 33.7519143,41.5296589 C33.1008694,40.878614 33.1008694,40.2275789 33.7519143,39.5765339 L37.6581643,35.8655964 C38.1790003,35.0843425 38.8300354,35.0843425 39.6112893,35.8655964 C40.0019163,36.5166414 40.0019163,37.1676765 39.6112893,37.8187214 L35.7050393,41.5296589 C35.5748303,41.7900769 35.2493128,41.9202839 34.7284768,41.9202839 Z" id="3" fill="#352576"></path>
    </g>
</svg>
