<?xml version="1.0" encoding="UTF-8"?>
<svg width="92px" height="92px" viewBox="0 0 92 92" version="1.1" xmlns="http://www.w3.org/2000/svg" xmlns:xlink="http://www.w3.org/1999/xlink">
    <!-- Generator: Sketch 43.2 (39069) - http://www.bohemiancoding.com/sketch -->
    <title>n</title>
    <desc>Created with Sketch.</desc>
    <defs></defs>
    <g id="web-page" stroke="none" stroke-width="1" fill="none" fill-rule="evenodd">
        <path d="M44.3071181,57.9140625 C45.218581,58.1744805 45.5440986,58.6953086 45.2836806,59.4765625 C45.2836806,60.2578164 44.827956,60.6484375 43.9164931,60.6484375 L43.7211806,60.6484375 C34.7367607,58.9557207 30.2446181,52.7057832 30.2446181,41.8984375 L30.2446181,33.890625 C30.2446181,32.9791621 30.7003427,32.5234375 31.6118056,32.5234375 C32.6534775,32.5234375 33.1743056,32.9791621 33.1743056,33.890625 L33.1743056,41.8984375 C33.1743056,51.2734844 36.885206,56.6119727 44.3071181,57.9140625 Z M48.0180556,63.3828125 C47.1065927,63.3828125 46.6508681,62.9270879 46.6508681,62.015625 C46.6508681,61.1041621 47.1065927,60.6484375 48.0180556,60.6484375 L49.3852431,60.6484375 C50.296706,60.6484375 50.7524306,61.1041621 50.7524306,62.015625 C50.7524306,62.9270879 50.296706,63.3828125 49.3852431,63.3828125 L48.0180556,63.3828125 Z M77.1196181,49.3203125 C75.9477372,55.9609707 72.7251132,61.7551836 67.4516493,66.703125 C62.1781855,71.6510664 56.2863173,74.255207 49.7758681,74.515625 L49.7758681,85.6484375 L67.5493056,85.6484375 C68.2003505,85.6484375 68.8188339,85.9088516 69.4047743,86.4296875 C69.9907148,86.9505234 70.2836806,87.6015586 70.2836806,88.3828125 C70.2836806,89.1640664 69.9907148,89.8151016 69.4047743,90.3359375 C68.8188339,90.8567734 68.2003505,91.1171875 67.5493056,91.1171875 L27.1196181,91.1171875 C25.2966923,91.1171875 24.3852431,90.2057383 24.3852431,88.3828125 C24.3852431,86.5598867 25.2966923,85.6484375 27.1196181,85.6484375 L44.1118056,85.6484375 L44.1118056,74.3203125 C37.9919833,73.4088496 32.6209433,70.6093984 27.9985243,65.921875 C23.3761054,61.2343516 20.609206,55.7005527 19.6977431,49.3203125 C19.1769072,49.5807305 18.7211825,49.7109375 18.3305556,49.7109375 C13.5128232,49.7109375 9.41130169,46.2930029 6.02586809,39.4570312 C2.6404345,32.6210596 0.947743092,26.2083633 0.947743092,20.21875 C0.947743092,16.5728984 1.85919231,13.9036543 3.68211809,12.2109375 C5.50504387,10.2578027 9.34615129,9.41145703 15.2055556,9.671875 L18.3305556,9.671875 C18.7211825,9.671875 18.9815966,9.73697852 19.1118056,9.8671875 L19.1118056,3.421875 C19.1118056,1.7291582 19.9581513,0.8828125 21.6508681,0.8828125 L74.3852431,0.8828125 C76.4685868,0.8828125 77.5102431,1.7291582 77.5102431,3.421875 L77.5102431,9.671875 L77.7055556,9.671875 C83.5649599,9.41145703 87.4060673,10.2578027 89.2289931,12.2109375 C91.0519189,13.9036543 91.9633681,16.5728984 91.9633681,20.21875 C91.9633681,25.5573184 90.5310907,31.4166348 87.6664931,37.796875 C84.8018954,44.1771152 81.2863056,48.0182227 77.1196181,49.3203125 Z M6.41649309,20.21875 C6.41649309,25.0364824 7.75111516,30.2122119 10.4203993,35.7460938 C13.0896835,41.2799756 15.7263759,44.046875 18.3305556,44.046875 L18.7211806,44.046875 L19.1118056,44.2421875 L19.1118056,15.140625 L18.7211806,15.140625 C18.5909716,15.270834 18.4607646,15.3359375 18.3305556,15.3359375 C17.9399286,15.3359375 17.353997,15.3033857 16.5727431,15.2382812 C15.7914892,15.1731768 15.2706611,15.140625 15.0102431,15.140625 C10.5831376,15.140625 8.10920403,15.4661426 7.58836809,16.1171875 C6.80711419,16.7682324 6.41649309,18.1354063 6.41649309,20.21875 Z M77.9008681,15.140625 L77.5102431,15.140625 L77.5102431,42.875 C79.8540048,41.0520742 81.9373173,37.7968984 83.7602431,33.109375 C85.5831689,28.4218516 86.4946181,24.1250195 86.4946181,20.21875 C86.4946181,18.1354063 86.103997,16.7682324 85.3227431,16.1171875 C84.8019072,15.4661426 82.3279736,15.140625 77.9008681,15.140625 Z M24.7758681,44.4375 C24.7758681,50.5573223 26.8917323,56.0260176 31.1235243,60.84375 C35.3553163,65.6614824 40.2706318,68.3307266 45.8696181,68.8515625 C46.1300361,68.7213535 46.5206572,68.65625 47.0414931,68.65625 C47.562329,68.65625 47.9529501,68.7213535 48.2133681,68.8515625 L48.6039931,68.8515625 C54.2029794,68.8515625 59.3136054,66.6705947 63.9360243,62.3085938 C68.5584433,57.9465928 71.1951357,52.8359668 71.8461806,46.9765625 L71.8461806,46.1953125 C71.8461806,46.0651035 71.8787323,45.8046895 71.9438368,45.4140625 C72.0089413,45.0234355 72.0414931,44.697918 72.0414931,44.4375 L72.0414931,13.3828125 C71.9112841,13.2526035 71.8461806,12.9270859 71.8461806,12.40625 C71.8461806,12.015623 71.9112841,11.6901055 72.0414931,11.4296875 L72.0414931,6.3515625 L24.7758681,6.3515625 L24.7758681,44.4375 Z" id="n" fill="#352576"></path>
    </g>
</svg>
