<?xml version="1.0" encoding="UTF-8"?>
<svg width="95px" height="78px" viewBox="0 0 95 78" version="1.1" xmlns="http://www.w3.org/2000/svg" xmlns:xlink="http://www.w3.org/1999/xlink">
    <!-- Generator: Sketch 43.2 (39069) - http://www.bohemiancoding.com/sketch -->
    <title>w</title>
    <desc>Created with Sketch.</desc>
    <defs></defs>
    <g id="web-page" stroke="none" stroke-width="1" fill="none" fill-rule="evenodd">
        <path d="M57.0258681,0.9140625 C67.4425868,0.9140625 76.3292167,4.62496289 83.6860243,12.046875 C91.042832,19.4687871 94.7211806,28.3879688 94.7211806,38.8046875 C94.7211806,48.9609883 91.2055907,57.7174111 84.1743056,65.0742188 C77.1430204,72.4310264 68.6144599,76.3046855 58.5883681,76.6953125 C57.8071142,76.9557305 57.3513896,77.0859375 57.2211806,77.0859375 L22.4555556,77.0859375 C16.3357333,77.0859375 11.0949003,74.872418 6.73289934,70.4453125 C2.37089837,66.018207 0.189930592,60.6797188 0.189930592,54.4296875 C0.189930592,50.653627 1.13393157,47.0403818 3.02196184,43.5898438 C4.90999212,40.1393057 7.48158098,37.3724062 10.7368056,35.2890625 C10.9972236,32.1640469 12.2341904,29.4296992 14.4477431,27.0859375 C16.6612958,24.7421758 19.3956435,23.375002 22.6508681,22.984375 C25.6456747,16.2135078 30.2354726,10.8424678 36.4203993,6.87109375 C42.6053261,2.89971973 49.473747,0.9140625 57.0258681,0.9140625 Z M57.4164931,71.2265625 C66.140495,71.0963535 73.5948476,67.8737295 79.7797743,61.5585938 C85.9647011,55.243458 89.0571181,47.6588984 89.0571181,38.8046875 C89.0571181,29.9504766 85.9321493,22.365917 79.6821181,16.0507812 C73.4320868,9.73564551 65.880079,6.578125 57.0258681,6.578125 C50.3852099,6.578125 44.3631347,8.40102344 38.9594618,12.046875 C33.555789,15.6927266 29.6170263,20.5754902 27.1430556,26.6953125 C26.4920107,27.9974023 25.5805615,28.583334 24.4086806,28.453125 L24.2133681,28.453125 C21.9998154,28.453125 20.1118134,29.2669189 18.5493056,30.8945312 C16.9867978,32.5221436 16.2055556,34.4426973 16.2055556,36.65625 L16.2055556,36.8515625 C16.2055556,38.1536523 15.6847275,38.999998 14.6430556,39.390625 C8.78365129,42.6458496 5.85399309,47.6588203 5.85399309,54.4296875 C5.85399309,59.1172109 7.48158098,63.1210771 10.7368056,66.4414062 C13.9920302,69.7617354 17.8982411,71.421875 22.4555556,71.421875 L56.0493056,71.421875 C56.4399325,71.291666 56.8956572,71.2265625 57.4164931,71.2265625 Z M83.1977431,33.921875 C83.1977431,34.182293 83.2302948,34.6054658 83.2953993,35.1914062 C83.3605038,35.7773467 83.3930556,36.2005195 83.3930556,36.4609375 C83.3930556,37.6328184 82.937331,38.21875 82.0258681,38.21875 C80.9841962,38.21875 80.4633681,37.6328184 80.4633681,36.4609375 L80.4633681,34.3125 C80.2029501,33.2708281 80.5935712,32.75 81.6352431,32.75 C82.676915,32.489582 83.1977431,32.8802031 83.1977431,33.921875 Z M80.4633681,25.1328125 C80.853995,26.0442754 80.6586845,26.6953105 79.8774306,27.0859375 C79.7472216,27.2161465 79.5519111,27.28125 79.2914931,27.28125 C78.6404482,27.28125 78.2498271,27.0208359 78.1196181,26.5 C74.0831396,19.4687148 68.0936161,15.953125 60.1508681,15.953125 C59.2394052,15.953125 58.7836806,15.4974004 58.7836806,14.5859375 C58.7836806,13.6744746 59.2394052,13.21875 60.1508681,13.21875 C69.265497,13.21875 76.0362626,17.1900645 80.4633681,25.1328125 Z" id="w" fill="#352576"></path>
    </g>
</svg>
