<?xml version="1.0" encoding="UTF-8"?>
<svg width="92px" height="92px" viewBox="0 0 92 92" version="1.1" xmlns="http://www.w3.org/2000/svg" xmlns:xlink="http://www.w3.org/1999/xlink">
    <!-- Generator: Sketch 43.2 (39069) - http://www.bohemiancoding.com/sketch -->
    <title>6</title>
    <desc>Created with Sketch.</desc>
    <defs></defs>
    <g id="web-page" stroke="none" stroke-width="1" fill="none" fill-rule="evenodd">
        <path d="M21.390625,91.8984375 C17.2239375,91.8984375 13.3828301,90.7265742 9.8671875,88.3828125 L9.0859375,87.796875 C4.52862305,84.5416504 1.76172363,80.1797148 0.78515625,74.7109375 C-0.191411133,69.2421602 0.882796875,64.1640859 4.0078125,59.4765625 L23.34375,33.6953125 C26.5989746,29.268207 30.9609102,26.5338594 36.4296875,25.4921875 C41.8984648,24.4505156 46.9765391,25.5572754 51.6640625,28.8125 L52.25,29.203125 C56.1562695,31.9375137 58.8255137,35.5833105 60.2578125,40.140625 C60.7786484,42.0937598 60.1276133,43.265623 58.3046875,43.65625 C56.6119707,44.1770859 55.4401074,43.5260508 54.7890625,41.703125 C54.0078086,38.7083184 52.1198066,36.1041777 49.125,33.890625 L48.34375,33.3046875 C44.9583164,30.9609258 41.3125195,30.1796836 37.40625,30.9609375 C33.4999805,31.6119824 30.3099082,33.6301914 27.8359375,37.015625 L8.5,62.796875 C6.28644727,66.0520996 5.53775684,69.6978965 6.25390625,73.734375 C6.97005566,77.7708535 9.02081641,80.9609258 12.40625,83.3046875 L12.9921875,83.6953125 C16.3776211,86.0390742 20.0885215,86.8528682 24.125,86.1367188 C28.1614785,85.4205693 31.2864473,83.3698086 33.5,79.984375 L39.5546875,71.5859375 C40.4661504,70.0234297 41.7031172,69.7630156 43.265625,70.8046875 C44.8281328,71.8463594 45.0885469,73.1484297 44.046875,74.7109375 L38.1875,83.3046875 C34.2812305,89.0338828 28.6823281,91.8984375 21.390625,91.8984375 Z M52.0546875,66.8984375 C47.627582,66.8984375 43.7213711,65.6614707 40.3359375,63.1875 L39.75,62.796875 C35.8437305,60.0624863 33.1744863,56.4166895 31.7421875,51.859375 C31.3515605,50.1666582 32.0025957,48.9947949 33.6953125,48.34375 C35.3880293,47.8229141 36.5598926,48.4739492 37.2109375,50.296875 C37.9921914,53.5520996 39.8801934,56.1562402 42.875,58.109375 L43.65625,58.6953125 C47.0416836,61.0390742 50.7200322,61.8528682 54.6914062,61.1367188 C58.6627803,60.4205693 61.8203008,58.3698086 64.1640625,54.984375 L83.5,29.203125 C85.7135527,25.9479004 86.4622432,22.3021035 85.7460938,18.265625 C85.0299443,14.2291465 82.9791836,11.0390742 79.59375,8.6953125 L79.0078125,8.3046875 C75.6223789,5.96092578 71.9114785,5.17968359 67.875,5.9609375 C63.8385215,6.61198242 60.7135527,8.63019141 58.5,12.015625 L52.4453125,20.4140625 C51.5338496,21.9765703 50.2968828,22.2369844 48.734375,21.1953125 C47.3020762,20.1536406 47.0416621,18.8515703 47.953125,17.2890625 L53.8125,8.6953125 C57.1979336,4.00778906 61.5598691,1.27344141 66.8984375,0.4921875 C72.3672148,-0.549484375 77.4452891,0.492171875 82.1328125,3.6171875 L82.9140625,4.203125 C87.471377,7.45834961 90.2382764,11.8528369 91.2148438,17.3867188 C92.1914111,22.9206006 91.1172031,27.966123 87.9921875,32.5234375 L68.65625,58.3046875 C64.7499805,64.0338828 59.2161816,66.8984375 52.0546875,66.8984375 Z M69.2421875,41.8984375 C68.8515605,41.8984375 68.5911465,41.833334 68.4609375,41.703125 C67.5494746,41.1822891 67.4843711,40.5312539 68.265625,39.75 L68.8515625,38.7734375 C69.5026074,38.1223926 70.1536426,37.9921855 70.8046875,38.3828125 C71.4557324,39.0338574 71.5859395,39.6848926 71.1953125,40.3359375 L70.4140625,41.5078125 C69.8932266,41.7682305 69.5026055,41.8984375 69.2421875,41.8984375 Z M72.3671875,37.796875 C72.1067695,37.796875 71.8463555,37.666668 71.5859375,37.40625 C70.6744746,36.8854141 70.6093711,36.2343789 71.390625,35.453125 L77.4453125,27.25 C79.1380293,25.1666563 79.6588574,22.7578262 79.0078125,20.0234375 C78.6171855,17.4192578 77.2500117,15.2708418 74.90625,13.578125 L74.515625,13.3828125 C73.8645801,12.7317676 73.734373,12.0807324 74.125,11.4296875 C74.6458359,10.6484336 75.2968711,10.5182266 76.078125,11.0390625 L76.6640625,11.4296875 C79.3984512,13.2526133 81.0911426,15.9218574 81.7421875,19.4375 C82.3932324,23.0833516 81.7421973,26.2734238 79.7890625,29.0078125 L73.5390625,37.2109375 C73.4088535,37.6015645 73.0182324,37.796875 72.3671875,37.796875 Z" id="6" fill="#352576"></path>
    </g>
</svg>
