<?xml version="1.0" encoding="UTF-8"?>
<svg width="539px" height="296px" viewBox="0 0 539 296" version="1.1" xmlns="http://www.w3.org/2000/svg" xmlns:xlink="http://www.w3.org/1999/xlink">
    <!-- Generator: Sketch 43.2 (39069) - http://www.bohemiancoding.com/sketch -->
    <title>logo-8</title>
    <desc>Created with Sketch.</desc>
    <defs></defs>
    <g id="Page-1" stroke="none" stroke-width="1" fill="none" fill-rule="evenodd">
        <g id="logo-8" transform="translate(-6.000000, -1.000000)">
            <path d="M97.32103,21.5697316 C98.2312394,21.0567684 99.262823,20.5002268 100.411791,19.9090964 C104.586494,17.7612613 109.417399,15.6096125 114.839624,13.5995252 C131.133594,7.55914529 149.140615,4.06771208 168.281809,4.42645565 C192.288482,4.87638785 216.306226,11.3995679 239.849592,25.20504 C239.66701,25.5052048 239.451517,25.8594757 239.195147,26.2809491 C237.051312,29.8054187 237.051312,29.8054187 234.014213,34.7984172 C226.868098,46.546649 226.868098,46.546649 218.292759,60.6445271 C209.71742,74.7424053 209.71742,74.7424053 202.571304,86.4906371 C199.534205,91.4836356 199.534205,91.4836356 197.39037,95.0081051 C197.024591,95.609447 196.812434,95.958234 196.646367,96.2312484 C186.201893,90.9261631 175.742426,88.492622 165.459725,88.492622 C156.913389,88.492622 148.985297,90.1586224 141.870291,92.9365536 C139.373467,93.9113955 137.152347,94.958224 135.230055,96.0093678 C135.220362,96.0146684 135.210692,96.01996 135.201046,96.0252426 L97.32103,21.5697316 Z" id="Path-2" stroke="#FFFFFF" stroke-width="5"></path>
            <path d="M7.9719602,160.585334 C8.82596401,160.046839 9.79184885,159.463933 10.8663829,158.845597 C14.8676479,156.543087 19.5162431,154.23616 24.7556392,152.080896 C40.0923447,145.772027 57.1855193,142.050725 75.5683034,142.223803 C98.5818678,142.440481 121.963394,148.793774 145.328395,162.507843 C145.187944,162.747744 145.027346,163.022055 144.842805,163.337265 C142.9464,166.576454 142.9464,166.576454 140.259826,171.165306 C133.938476,181.962604 133.938476,181.962604 126.352856,194.919361 C118.767236,207.876119 118.767236,207.876119 112.445886,218.673417 C109.759312,223.262268 109.759312,223.262268 107.862907,226.501458 C107.667097,226.835914 107.521055,227.085365 107.403698,227.285818 C97.37472,221.472699 87.1159694,218.66467 76.8630108,218.403027 C68.3612197,218.186071 60.3873667,219.715996 53.1837568,222.400216 C50.8200588,223.28098 48.7086936,224.22671 46.8743112,225.176306 C46.8384084,225.194891 46.8028427,225.213355 46.7676149,225.231695 L7.9719602,160.585334 Z" id="Path-2" stroke="#FFFFFF" stroke-width="5" transform="translate(76.667712, 185.225972) rotate(-113.000000) translate(-76.667712, -185.225972) "></path>
            <path d="M171.746624,173.309135 C172.999554,172.72357 174.420104,172.086063 176.000311,171.407744 C181.495106,169.049051 187.760831,166.687898 194.68331,164.483138 C211.145686,159.239989 228.63579,155.714797 246.577444,154.700162 C269.155205,153.423346 291.055387,156.226362 311.722814,163.889867 C319.484529,166.767919 327.022366,170.317676 334.316301,174.569806 C334.074677,174.966845 333.774458,175.460167 333.395772,176.082426 C330.959028,180.086505 330.959028,180.086505 327.506975,185.758949 C319.384495,199.105877 319.384495,199.105877 309.63752,215.122192 C299.890544,231.138506 299.890544,231.138506 291.768065,244.485434 C288.316011,250.157879 288.316011,250.157879 285.879267,254.161957 C285.335024,255.056262 285.089995,255.458895 284.87001,255.820377 C274.707897,250.630447 264.496815,248.199818 254.431364,248.106162 C246.073245,248.028393 238.309688,249.551811 231.34151,252.140508 C228.956678,253.02648 226.833735,253.978042 224.995162,254.933724 C224.934225,254.965399 224.874261,254.996724 224.815273,255.027689 L171.746624,173.309135 Z" id="Path-2" stroke="#FFFFFF" stroke-width="5" transform="translate(252.936605, 205.518774) rotate(123.000000) translate(-252.936605, -205.518774) "></path>
            <path d="M18.9516082,54.7559807 C20.2231193,53.8517912 21.6936383,52.8540264 23.353477,51.7844981 C28.5425912,48.4408575 34.4838029,45.0936607 41.0757815,41.9688339 C54.5999269,35.5579193 69.0391396,30.9373071 84.0434993,28.8754011 C102.08903,26.395576 120.034006,27.7613424 137.591624,33.6706826 C137.505315,34.2799812 137.363164,35.0604365 137.166469,35.9961457 C136.613531,38.6265551 135.650567,42.3953895 134.313723,47.1896378 C131.946428,55.6793359 128.472003,67.1590863 124.157197,80.8678896 C120.798446,91.5391592 117.126844,102.939487 113.406957,114.316599 C112.104923,118.298814 110.88989,121.993578 109.794902,125.306948 C109.555032,126.032781 109.331776,126.707453 109.126147,127.328084 C99.9057331,125.537197 90.49381,126.848431 81.5367258,130.144719 C79.401848,130.930373 77.4629372,131.773116 75.7525571,132.618595 C75.6925277,132.648269 75.6334831,132.677589 75.5754296,132.706545 L18.9516082,54.7559807 Z" id="Path-2" stroke="#FFFFFF" stroke-width="5" transform="translate(77.829431, 80.569906) scale(-1, 1) rotate(64.000000) translate(-77.829431, -80.569906) "></path>
            <path d="M218.008375,208.912613 L218.008375,208.912613 L218.008375,208.912613 Z M216.929341,211.37156 C216.820727,211.619074 216.683285,211.932282 216.490702,212.371148 C214.83506,216.144096 214.83506,216.144096 212.489566,221.489105 C206.970758,234.065597 206.970758,234.065597 200.348188,249.157387 C193.725617,264.249178 193.725617,264.249178 188.206809,276.82567 C185.861315,282.170679 185.861315,282.170679 184.205673,285.943626 C183.936324,286.557431 183.7254,287.038092 183.557412,287.420909 C169.460506,283.782089 155.87638,285.382172 143.616031,290.293248 C140.982096,291.348312 138.625196,292.480612 136.574468,293.616822 C136.381873,293.72353 136.197996,293.826836 136.022943,293.926476 L86.5367225,226.806833 C87.6185759,226.038566 88.8649114,225.197287 90.2711936,224.299075 C94.9794095,221.29187 100.473193,218.279644 106.694777,215.465853 C120.777708,209.096666 136.420074,204.701936 153.372927,203.173146 C173.855272,201.32607 195.107019,203.790471 216.92934,211.371563 L216.929341,211.37156 Z" id="Path-2" stroke="#FFFFFF" stroke-width="5" transform="translate(151.671798, 248.672212) scale(-1, 1) rotate(181.000000) translate(-151.671798, -248.672212) "></path>
            <g id="uMaster" transform="translate(144.000000, 56.000000)">
                <path d="M75,69 C75,69 112,52 106,27 C100,2 80,79 117,75 C154,71 151,-1 141,27 C131,55 137,87 151,66 C165,45 158,1 179,-1.42108547e-14" id="Path-4" stroke="#FFFFFF" stroke-width="4.5" stroke-linecap="round"></path>
                <path d="M287,47 C278,39 259,55 264,68 C269,81 287,56.6971659 287,54 C287,51.3028341 275,56.6971659 283,69 C291,81.3028341 315,54 313,48 C311,42 310,52.3943318 315,56.6971659 C320,61 333,63 324,70 C315,77 303,69 310,68 C317,67 334,66 344,51 C354,36 361,27 354,27 C347,27 339,56 337,69 C335,82 355,78 363,66 C371,54 370,38 361,46 C352,54 351,81 364,77 C377,73 381,36 385,49 C389,62 386,77 383,77 C380,77 388,51 393,48 C398,45 399,48 399,48" id="Path-11" stroke="#FFFFFF" stroke-width="4" stroke-linecap="round"></path>
                <path d="M330,41 L368,32" id="Path-12" stroke="#FFFFFF" stroke-width="4.5" stroke-linecap="round"></path>
                <text id="M" font-family="GiddyupStd, Giddyup Std" font-size="108" font-weight="normal" letter-spacing="-1.9583993" fill="#FFFFFF">
                    <tspan x="168.1492" y="75">M</tspan>
                </text>
            </g>
        </g>
    </g>
</svg>