<?xml version="1.0" encoding="UTF-8"?>
<svg width="539px" height="298px" viewBox="0 0 539 298" version="1.1" xmlns="http://www.w3.org/2000/svg" xmlns:xlink="http://www.w3.org/1999/xlink">
    <!-- Generator: Sketch 43.2 (39069) - http://www.bohemiancoding.com/sketch -->
    <title>logo-8</title>
    <desc>Created with Sketch.</desc>
    <defs>
        <path d="M97,20 L139,100 C139,100 166,86 197,103 C197,103 243.296227,24.3493918 243.296227,24.3493918 C163.72332,-23.8749102 97,20 97,20 Z" id="path-1"></path>
    </defs>
    <g id="Page-1" stroke="none" stroke-width="1" fill="none" fill-rule="evenodd">
        <g id="logo-8" transform="translate(-6.000000, -1.000000)">
            <g id="Path-2">
                <use fill="#FFFFFF" fill-rule="evenodd" xlink:href="#path-1"></use>
                <path stroke="#FFFFFF" stroke-width="5" d="M100.307314,20.9213803 C101.148009,20.4363575 102.096796,19.9119767 103.150489,19.3561186 C107.12087,17.26161 111.728307,15.1630247 116.915114,13.2022757 C132.641909,7.25713509 150.147551,3.84407648 168.909005,4.26118219 C192.483809,4.78529858 216.28719,11.3686028 239.881075,25.2229374 C239.6827,25.5599484 239.443629,25.9660959 239.152474,26.4607257 C236.982338,30.1474729 236.982338,30.1474729 233.90798,35.3703649 C226.674194,47.6595224 226.674194,47.6595224 217.993651,62.4065114 C209.313109,77.1535005 209.313109,77.1535005 202.079323,89.442658 C199.004964,94.6655499 199.004964,94.6655499 196.834829,98.3522972 C196.446132,99.0126369 196.228808,99.3818391 196.056929,99.6738367 C178.455825,90.7126029 160.991021,90.2444337 145.431546,94.8945616 C143.451804,95.4862301 141.675777,96.120082 140.121827,96.7585489 L100.307314,20.9213803 Z"></path>
            </g>
            <path d="M6.57067657,159.599836 L47.8854611,229.889086 C47.8854611,229.889086 77.2360298,211.929573 107.639087,232.439428 C107.639087,232.439428 148.884088,160.865341 148.884088,160.865341 C69.3111803,112.641039 6.57067657,159.599836 6.57067657,159.599836 Z" id="Path-2" fill-opacity="0.707569067" fill="#FFFFFF" transform="translate(77.727382, 185.769329) rotate(-113.000000) translate(-77.727382, -185.769329) "></path>
            <path d="M167.594478,171.350511 L224.781577,259.410921 C224.781577,259.410921 250.470167,239.996537 284.588257,258.727634 C284.588257,258.727634 337.251415,172.765643 337.251415,172.765643 C257.678508,124.541341 167.594478,171.350511 167.594478,171.350511 Z" id="Path-2" fill-opacity="0.938037817" fill="#FFFFFF" transform="translate(252.422947, 205.185200) rotate(123.000000) translate(-252.422947, -205.185200) "></path>
            <path d="M17.2827423,53.083264 L77.8534052,138.834548 C77.8534052,138.834548 93.4835027,129.768826 112.225433,132.234265 C112.225433,132.234265 144.880879,32.2221113 141.794429,30.7167488 C75.5005325,7.35511421 17.2827423,53.083264 17.2827423,53.083264 Z" id="Path-2" fill-opacity="0.363875679" fill="#FFFFFF" transform="translate(79.641472, 81.452446) scale(-1, 1) rotate(64.000000) translate(-79.641472, -81.452446) "></path>
            <path d="M85.5800242,225.875545 L136.863887,298.991655 C136.863887,298.991655 157.616355,284.627286 183.769467,293.172153 C183.769467,293.172153 217.315586,209.57396 217.315586,209.57396 C136.87222,180.236048 85.5800242,225.875545 85.5800242,225.875545 Z" id="Path-2" fill-opacity="0.896710824" fill="#FFFFFF" transform="translate(151.447805, 249.364786) scale(-1, 1) rotate(181.000000) translate(-151.447805, -249.364786) "></path>
            <g id="uMaster" transform="translate(144.000000, 56.000000)">
                <path d="M75,69 C75,69 112,52 106,27 C100,2 80,79 117,75 C154,71 151,-1 141,27 C131,55 137,87 151,66 C165,45 158,1 179,-1.42108547e-14" id="Path-4" stroke="#FFFFFF" stroke-width="4.5" stroke-linecap="round"></path>
                <path d="M287,47 C278,39 259,55 264,68 C269,81 287,56.6971659 287,54 C287,51.3028341 275,56.6971659 283,69 C291,81.3028341 315,54 313,48 C311,42 310,52.3943318 315,56.6971659 C320,61 333,63 324,70 C315,77 303,69 310,68 C317,67 334,66 344,51 C354,36 361,27 354,27 C347,27 339,56 337,69 C335,82 355,78 363,66 C371,54 370,38 361,46 C352,54 351,81 364,77 C377,73 381,36 385,49 C389,62 386,77 383,77 C380,77 388,51 393,48 C398,45 399,48 399,48" id="Path-11" stroke="#FFFFFF" stroke-width="4" stroke-linecap="round"></path>
                <path d="M330,41 L368,32" id="Path-12" stroke="#FFFFFF" stroke-width="4.5" stroke-linecap="round"></path>
                <text id="M" font-family="GiddyupStd, Giddyup Std" font-size="108" font-weight="normal" letter-spacing="-1.9583993" fill="#FFFFFF">
                    <tspan x="168.1492" y="75">M</tspan>
                </text>
            </g>
        </g>
    </g>
</svg>