<?xml version="1.0" encoding="UTF-8"?>
<svg width="2212px" height="1194px" viewBox="0 0 2212 1194" version="1.1" xmlns="http://www.w3.org/2000/svg" xmlns:xlink="http://www.w3.org/1999/xlink">
    <!-- Generator: Sketch 43.2 (39069) - http://www.bohemiancoding.com/sketch -->
    <title>logo-3</title>
    <desc>Created with Sketch.</desc>
    <defs></defs>
    <g id="Page-1" stroke="none" stroke-width="1" fill="none" fill-rule="evenodd">
        <g id="logo-3">
            <g id="uMaster" transform="translate(875.886841, 238.690781)" stroke="#FFFFFF" stroke-linecap="round">
                <path d="M0,282.658774 C0,282.658774 151.553046,213.041643 126.976876,110.66351 C102.400707,8.28537602 20.4801413,323.610027 172.033187,307.229526 C323.586233,290.849025 311.298148,-4 270.337866,110.66351 C229.377583,225.327019 253.953753,356.37103 311.298148,270.373398 C368.642544,184.375766 339.970346,4.19025068 425.98694,0.0951253405 C512.003534,-4 516.099562,307.229526 438.275025,307.229526 C360.450488,307.229526 434.178997,20.570752 548.867788,32.8561281 C663.55658,45.1415041 647.172467,274.468523 577.539986,307.229526 C507.907505,339.990529 602.116156,12.3805014 700.420834,45.1415041 C798.725512,77.9025068 716.804947,299.039275 716.804947,299.039275" id="Path-4" stroke-width="18.432"></path>
                <path d="M868.357993,192.566016 C831.493739,159.805014 753.669202,225.327019 774.149343,278.563648 C794.629484,331.800278 868.357993,232.277126 868.357993,221.231894 C868.357993,210.186661 819.205654,232.277126 851.97388,282.658774 C884.742106,333.040422 983.046785,221.231894 974.854728,196.661142 C966.662672,172.09039 962.566643,214.656481 983.046785,232.277126 C1003.52693,249.897771 1056.77529,258.088022 1019.91104,286.753899 C983.046785,315.419777 933.894445,282.658774 962.566643,278.563648 C991.238841,274.468523 1060.87132,270.373398 1101.8316,208.946518 C1142.79189,147.519638 1171.46408,110.66351 1142.79189,110.66351 C1114.11969,110.66351 1081.35146,229.422144 1073.15941,282.658774 C1064.96735,335.895403 1146.88792,319.514902 1179.65614,270.373398 C1212.42437,221.231894 1208.32834,155.709888 1171.46408,188.470891 C1134.59983,221.231894 1130.5038,331.800278 1183.75217,315.419777 C1237.00054,299.039275 1253.38465,147.519638 1269.76876,200.756267 C1286.15288,253.992896 1273.86479,315.419777 1261.57671,315.419777 C1249.28862,315.419777 1282.05685,208.946518 1302.53699,196.661142 C1323.01713,184.375766 1327.11316,196.661142 1327.11316,196.661142" id="Path-11" stroke-width="16.384"></path>
                <path d="M1044.48721,167.995264 L1200.13628,131.139136" id="Path-12" stroke-width="18.432"></path>
            </g>
            <path d="M418.181112,58.1656583 C413.412133,48.203064 417.78182,36.6373959 428.1051,32.7129137 C428.1051,32.7129137 537.546111,-19.8732144 716.546111,9.1267856 C895.546111,38.1267856 989.269901,157.1989 989.269901,157.1989 C996.602149,165.443344 996.994953,179.163122 990.156355,187.831344 L780.740556,453.275055 C777.319458,457.611446 772.557065,457.117589 769.944901,452.252052 C769.944901,452.252052 741.546111,389.126786 676.546111,363.126786 C611.546111,337.126786 565.49609,344.27301 565.49609,344.27301 C560.000868,344.744537 553.612992,341.088422 551.226109,336.102123 L418.181112,58.1656583 Z" id="Path-15" fill="#FFFFFF"></path>
            <path d="M9.10138298,383.948171 C3.79868558,382.389963 -0.192882245,376.66601 0.429560505,371.180195 C0.429560505,371.180195 1.54611074,290.126786 98.5461107,174.126786 C195.546111,58.1267856 316.129731,20.4522583 316.129731,20.4522583 C321.330254,18.6156504 327.601323,21.106026 330.135005,26.0116654 C330.135005,26.0116654 513.546111,381.126786 513.546111,381.126786 C421.546111,405.126786 394.432952,465.414811 394.432952,465.414811 C391.734024,470.226301 385.182604,473.122793 379.800052,471.88433 L60.292169,398.369241 C54.9095696,397.130767 46.2598678,394.867265 40.9447278,393.3054 L9.10138298,383.948171 Z" id="Path-17" fill="#FFFFFF"></path>
            <path d="M65.3956248,479.357815 C69.8970139,469.289095 82.3142999,462.928105 93.1380013,465.151706 C93.1380013,465.151706 404.546111,529.126786 404.546111,529.126786 C363.546111,592.126786 384.968256,653.479709 384.968256,653.479709 C386.391966,658.807642 383.991991,665.852615 379.609573,669.213706 L167.420219,831.952152 C158.653191,838.676016 145.197002,837.822763 137.768559,829.64562 C137.768559,829.64562 83.5461107,783.126786 55.5461107,663.126786 C27.5461107,543.126786 65.3956248,479.357815 65.3956248,479.357815 Z" id="Path-18" fill="#FFFFFF"></path>
            <path d="M429.546111,697.126786 C480.546111,820.126786 581.660204,826.707802 581.660204,826.707802 C587.12004,827.491485 592.558496,832.491876 593.803687,837.860749 L664.027509,1140.64398 C666.523064,1151.40404 659.70237,1161.56797 648.762559,1162.97425 C648.762559,1162.97425 516.546111,1190.12679 359.546111,1116.12679 C202.546111,1042.12679 151.541768,949.176961 151.541768,949.176961 C145.469034,939.956906 147.493422,926.824825 156.058435,919.84965 C156.058435,919.84965 429.546111,697.126786 429.546111,697.126786 Z" id="Path-19" fill="#FFFFFF"></path>
            <path d="M643.546111,801.126786 C816.546111,801.126786 862.574102,625.651472 862.574102,625.651472 C864.215497,620.391133 870.027928,616.126786 875.547047,616.126786 L1218.54151,616.126786 C1229.58974,616.126786 1237.29076,624.986948 1235.43454,635.876917 C1235.43454,635.876917 1216.54611,811.126786 1068.54611,989.126786 C920.546111,1167.12679 764.002212,1192.59135 764.002212,1192.59135 C753.256904,1195.0962 742.330777,1188.44092 739.602012,1177.742 C739.602012,1177.742 643.546111,801.126786 643.546111,801.126786 Z" id="Path-20" fill="#FFFFFF"></path>
        </g>
    </g>
</svg>