<?xml version="1.0" encoding="UTF-8"?>
<svg width="3000px" height="933px" viewBox="0 0 3000 933" version="1.1" xmlns="http://www.w3.org/2000/svg" xmlns:xlink="http://www.w3.org/1999/xlink">
    <!-- Generator: Sketch 43.2 (39069) - http://www.bohemiancoding.com/sketch -->
    <title>spheres-img</title>
    <desc>Created with Sketch.</desc>
    <defs>
        <filter x="-5.9%" y="-5.9%" width="111.9%" height="111.8%" filterUnits="objectBoundingBox" id="filter-1">
            <feOffset dx="0" dy="0" in="SourceAlpha" result="shadowOffsetOuter1"></feOffset>
            <feGaussianBlur stdDeviation="6" in="shadowOffsetOuter1" result="shadowBlurOuter1"></feGaussianBlur>
            <feColorMatrix values="0 0 0 0 0   0 0 0 0 0   0 0 0 0 0  0 0 0 0.246263587 0" type="matrix" in="shadowBlurOuter1" result="shadowMatrixOuter1"></feColorMatrix>
            <feMerge>
                <feMergeNode in="shadowMatrixOuter1"></feMergeNode>
                <feMergeNode in="SourceGraphic"></feMergeNode>
            </feMerge>
        </filter>
        <circle id="path-2" cx="357.820329" cy="357.283465" r="357.283465"></circle>
        <filter x="-5.0%" y="-5.0%" width="110.1%" height="110.1%" filterUnits="objectBoundingBox" id="filter-3">
            <feOffset dx="0" dy="0" in="SourceAlpha" result="shadowOffsetOuter1"></feOffset>
            <feGaussianBlur stdDeviation="12" in="shadowOffsetOuter1" result="shadowBlurOuter1"></feGaussianBlur>
            <feColorMatrix values="0 0 0 0 0   0 0 0 0 0   0 0 0 0 0  0 0 0 0.576709692 0" type="matrix" in="shadowBlurOuter1"></feColorMatrix>
        </filter>
        <circle id="path-4" cx="149.486258" cy="149.486258" r="149.486258"></circle>
        <radialGradient cx="50%" cy="50%" fx="50%" fy="50%" r="50%" id="radialGradient-6">
            <stop stop-color="#FFFFFF" stop-opacity="0" offset="0%"></stop>
            <stop stop-color="#000000" stop-opacity="0.229449728" offset="100%"></stop>
        </radialGradient>
        <filter x="-5.9%" y="-5.9%" width="111.8%" height="111.7%" filterUnits="objectBoundingBox" id="filter-7">
            <feOffset dx="0" dy="0" in="SourceAlpha" result="shadowOffsetOuter1"></feOffset>
            <feGaussianBlur stdDeviation="7.5" in="shadowOffsetOuter1" result="shadowBlurOuter1"></feGaussianBlur>
            <feColorMatrix values="0 0 0 0 0   0 0 0 0 0   0 0 0 0 0  0 0 0 0.246263587 0" type="matrix" in="shadowBlurOuter1" result="shadowMatrixOuter1"></feColorMatrix>
            <feMerge>
                <feMergeNode in="shadowMatrixOuter1"></feMergeNode>
                <feMergeNode in="SourceGraphic"></feMergeNode>
            </feMerge>
        </filter>
        <circle id="path-8" cx="446.671439" cy="446.671439" r="446.671439"></circle>
        <filter x="-5.0%" y="-5.0%" width="110.1%" height="110.1%" filterUnits="objectBoundingBox" id="filter-9">
            <feOffset dx="0" dy="0" in="SourceAlpha" result="shadowOffsetOuter1"></feOffset>
            <feGaussianBlur stdDeviation="15" in="shadowOffsetOuter1" result="shadowBlurOuter1"></feGaussianBlur>
            <feColorMatrix values="0 0 0 0 0   0 0 0 0 0   0 0 0 0 0  0 0 0 0.576709692 0" type="matrix" in="shadowBlurOuter1"></feColorMatrix>
        </filter>
        <circle id="path-10" cx="186.828919" cy="186.828919" r="186.828919"></circle>
        <radialGradient cx="49.2204994%" cy="50%" fx="49.2204994%" fy="50%" r="48.4091637%" id="radialGradient-12">
            <stop stop-color="#FFFFFF" stop-opacity="0" offset="0%"></stop>
            <stop stop-color="#000000" stop-opacity="0.21521173" offset="100%"></stop>
        </radialGradient>
        <filter x="-5.9%" y="-5.9%" width="111.8%" height="111.8%" filterUnits="objectBoundingBox" id="filter-13">
            <feOffset dx="0" dy="0" in="SourceAlpha" result="shadowOffsetOuter1"></feOffset>
            <feGaussianBlur stdDeviation="6" in="shadowOffsetOuter1" result="shadowBlurOuter1"></feGaussianBlur>
            <feColorMatrix values="0 0 0 0 0   0 0 0 0 0   0 0 0 0 0  0 0 0 0.246263587 0" type="matrix" in="shadowBlurOuter1" result="shadowMatrixOuter1"></feColorMatrix>
            <feMerge>
                <feMergeNode in="shadowMatrixOuter1"></feMergeNode>
                <feMergeNode in="SourceGraphic"></feMergeNode>
            </feMerge>
        </filter>
        <circle id="path-14" cx="357.283465" cy="357.283465" r="357.283465"></circle>
        <filter x="-5.0%" y="-5.0%" width="110.1%" height="110.1%" filterUnits="objectBoundingBox" id="filter-15">
            <feOffset dx="0" dy="0" in="SourceAlpha" result="shadowOffsetOuter1"></feOffset>
            <feGaussianBlur stdDeviation="12" in="shadowOffsetOuter1" result="shadowBlurOuter1"></feGaussianBlur>
            <feColorMatrix values="0 0 0 0 0   0 0 0 0 0   0 0 0 0 0  0 0 0 0.576709692 0" type="matrix" in="shadowBlurOuter1"></feColorMatrix>
        </filter>
        <circle id="path-16" cx="149.486258" cy="149.486258" r="149.486258"></circle>
        <radialGradient cx="50%" cy="50%" fx="50%" fy="50%" r="49.5047433%" id="radialGradient-18">
            <stop stop-color="#FFFFFF" stop-opacity="0" offset="0%"></stop>
            <stop stop-color="#000000" stop-opacity="0.251670063" offset="100%"></stop>
        </radialGradient>
        <filter x="-5.9%" y="-5.9%" width="111.8%" height="111.8%" filterUnits="objectBoundingBox" id="filter-19">
            <feOffset dx="0" dy="0" in="SourceAlpha" result="shadowOffsetOuter1"></feOffset>
            <feGaussianBlur stdDeviation="7.5" in="shadowOffsetOuter1" result="shadowBlurOuter1"></feGaussianBlur>
            <feColorMatrix values="0 0 0 0 0   0 0 0 0 0   0 0 0 0 0  0 0 0 0.246263587 0" type="matrix" in="shadowBlurOuter1" result="shadowMatrixOuter1"></feColorMatrix>
            <feMerge>
                <feMergeNode in="shadowMatrixOuter1"></feMergeNode>
                <feMergeNode in="SourceGraphic"></feMergeNode>
            </feMerge>
        </filter>
        <circle id="path-20" cx="446.671439" cy="446.671439" r="446.671439"></circle>
        <filter x="-5.0%" y="-5.0%" width="110.1%" height="110.1%" filterUnits="objectBoundingBox" id="filter-21">
            <feOffset dx="0" dy="0" in="SourceAlpha" result="shadowOffsetOuter1"></feOffset>
            <feGaussianBlur stdDeviation="15" in="shadowOffsetOuter1" result="shadowBlurOuter1"></feGaussianBlur>
            <feColorMatrix values="0 0 0 0 0   0 0 0 0 0   0 0 0 0 0  0 0 0 0.576709692 0" type="matrix" in="shadowBlurOuter1"></feColorMatrix>
        </filter>
        <circle id="path-22" cx="186.828919" cy="186.828919" r="186.828919"></circle>
        <circle id="path-24" cx="501.431639" cy="501.431639" r="501.431639"></circle>
        <filter x="-4.9%" y="-4.9%" width="109.9%" height="109.9%" filterUnits="objectBoundingBox" id="filter-25">
            <feOffset dx="0" dy="0" in="SourceAlpha" result="shadowOffsetOuter1"></feOffset>
            <feGaussianBlur stdDeviation="16.5" in="shadowOffsetOuter1" result="shadowBlurOuter1"></feGaussianBlur>
            <feColorMatrix values="0 0 0 0 0   0 0 0 0 0   0 0 0 0 0  0 0 0 0.576709692 0" type="matrix" in="shadowBlurOuter1"></feColorMatrix>
        </filter>
        <circle id="path-26" cx="210.182534" cy="210.182534" r="210.182534"></circle>
        <radialGradient cx="50%" cy="50%" fx="50%" fy="50%" r="50%" gradientTransform="translate(0.500000,0.500000),rotate(90.000000),scale(1.000000,1.001710),translate(-0.500000,-0.500000)" id="radialGradient-28">
            <stop stop-color="#FFFFFF" stop-opacity="0" offset="0%"></stop>
            <stop stop-color="#000000" stop-opacity="0.257104846" offset="100%"></stop>
        </radialGradient>
    </defs>
    <g id="web-page" stroke="none" stroke-width="1" fill="none" fill-rule="evenodd">
        <g id="spheres-img">
            <g id="sfere" filter="url(#filter-1)" opacity="0.697463768" transform="translate(2258.589835, 380.637079)">
                <g id="Oval-2">
                    <use fill="black" fill-opacity="1" filter="url(#filter-3)" xlink:href="#path-2"></use>
                    <use fill="#FFFFFF" fill-rule="evenodd" xlink:href="#path-2"></use>
                </g>
                <path d="M153.136007,78.4998529 L257.948211,215.958481 C257.948211,215.958481 294.890217,190.184988 345.578086,185.889406 C396.265955,181.593824 434.926194,203.930851 434.926194,203.930851 L519.97872,52.7263602 C519.97872,52.7263602 438.36266,4.61584052 328.395758,14.0661212 C218.428856,23.5164018 153.136007,78.4998529 153.136007,78.4998529 Z" id="Path-3" fill="#883625"></path>
                <path d="M452.967639,214.240248 L538.879282,63.8948737 C538.879282,63.8948737 635.959437,118.019208 678.056142,227.126994 C720.152847,336.23478 697.81582,421.287306 697.81582,421.287306 L528.569885,387.781765 C528.569885,387.781765 536.301932,337.093896 516.542255,289.842493 C496.782577,242.59109 452.967639,214.240248 452.967639,214.240248 Z" id="Path-5" fill="#40C48D"></path>
                <path d="M524.274302,406.682327 L693.520238,443.624333 C693.520238,443.624333 672.901444,548.436537 577.539521,627.475248 C482.177598,706.513958 384.238325,704.795726 384.238325,704.795726 L374.788045,532.113325 C374.788045,532.113325 432.348845,526.958626 473.586433,487.439271 C514.824022,447.919915 524.274302,406.682327 524.274302,406.682327 Z" id="Path-6" fill="#EB445F"></path>
                <text id="SZKOLENIA" font-family="Avenir-Book, Avenir" font-size="21.4745884" font-weight="300" letter-spacing="8.58983536" fill-opacity="0.503368433" fill="#FFFFFF">
                    <tspan x="442.705404" y="536.790112">SZKOLENIA</tspan>
                </text>
                <text id="/" transform="translate(532.435908, 572.873002) rotate(90.000000) translate(-532.435908, -572.873002) " font-family="untitled-font-5" font-size="42.9491768" font-weight="normal" letter-spacing="0.0610832224" fill-opacity="0.49889606" fill="#FFFFFF">
                    <tspan x="510.930778" y="593.873002">/</tspan>
                </text>
                <path d="M192.655363,414.414375 C192.655363,414.414375 204.682993,460.806661 250.216163,496.889551 C295.749334,532.972441 356.7466,532.972441 356.7466,532.972441 L367.055997,705.654842 C367.055997,705.654842 247.638814,713.38689 148.840425,637.784645 C50.0420367,562.182399 25.1276604,459.947545 25.1276604,459.947545 L192.655363,414.414375 Z" id="Path-7" fill="#BEAD00"></path>
                <text id="MARKETING" font-family="Avenir-Book, Avenir" font-size="21.4745884" font-weight="300" letter-spacing="8.58983536" fill-opacity="0.5" fill="#FFFFFF">
                    <tspan x="115.500821" y="564.281838">MARKETING</tspan>
                </text>
                <path d="M139.390145,89.6683664 L244.202348,227.126994 C244.202348,227.126994 208.978575,254.61872 191.796247,306.165705 C174.613918,357.712691 186.641548,398.091162 186.641548,398.091162 L19.9729619,442.765216 C19.9729619,442.765216 -4.94141442,373.176786 25.1276604,258.914302 C55.1967352,144.651818 139.390145,89.6683664 139.390145,89.6683664 Z" id="Path-8" fill="#5F7B10"></path>
                <text id="KARIERA" font-family="Avenir-Book, Avenir" font-size="21.4745884" font-weight="300" letter-spacing="8.58983536" fill-opacity="0.50073596" fill="#FFFFFF">
                    <tspan x="37.5425239" y="287.64635">KARIERA</tspan>
                </text>
                <text id="/" transform="translate(104.595930, 324.588356) rotate(90.000000) translate(-104.595930, -324.588356) " font-family="untitled-font-5" font-size="42.9491768" font-weight="normal" letter-spacing="0.0610832224" fill-opacity="0.49889606" fill="#FFFFFF">
                    <tspan x="83.0907996" y="345.588356">/</tspan>
                </text>
                <text id="SPRZEDAŻ" font-family="Avenir-Book, Avenir" font-size="21.4745884" font-weight="300" letter-spacing="8.58983536" fill-opacity="0.5" fill="#FFFFFF">
                    <tspan x="258.659623" y="115.823065">SPRZEDAŻ</tspan>
                </text>
                <text id="/" transform="translate(340.852946, 154.483304) rotate(90.000000) translate(-340.852946, -154.483304) " font-family="untitled-font-5" font-size="42.9491768" font-weight="normal" letter-spacing="0.0610832224" fill-opacity="0.49889606" fill="#FFFFFF">
                    <tspan x="319.347816" y="175.483304">/</tspan>
                </text>
                <text id="/" transform="translate(599.446989, 318.574541) rotate(90.000000) translate(-599.446989, -318.574541) " font-family="untitled-font-5" font-size="42.9491768" font-weight="normal" letter-spacing="0.0610832224" fill-opacity="0.49889606" fill="#FFFFFF">
                    <tspan x="577.941859" y="339.574541">/</tspan>
                </text>
                <text id="/" transform="translate(358.035274, 479.229312) rotate(90.000000) translate(-358.035274, -479.229312) " font-family="untitled-font-5" font-size="42.9491768" font-weight="normal" letter-spacing="0.0610832224" fill-opacity="0.49889606" fill="#FFFFFF">
                    <tspan x="336.530144" y="500.229312">/</tspan>
                </text>
                <text id="WARTOŚCI" font-family="Avenir-Book, Avenir" font-size="21.4745884" font-weight="300" letter-spacing="8.58983536" fill-opacity="0.503368433" fill="#FFFFFF">
                    <tspan x="516.738675" y="282.491651">WARTOŚCI</tspan>
                </text>
                <g id="avatar" opacity="0.940500453" transform="translate(207.260342, 209.944666)">
                    <mask id="mask-5" fill="white">
                        <use xlink:href="#path-4"></use>
                    </mask>
                    <use id="Mask" fill-opacity="0.589192708" fill="#AF1E00" xlink:href="#path-4"></use>
                    <path d="M51.5469854,50.687869 L50.869278,98.8050976 C50.7690885,105.918546 56.4489891,111.725994 63.56543,111.776465 L158.945724,112.452921 C166.057804,112.503362 171.823285,118.303497 171.823285,125.428903 L171.823285,189.007708 C171.823285,196.123705 166.052363,201.956839 158.943496,202.036268 L18.0414449,203.610592" id="Path-13" stroke="#742919" stroke-width="4.29491768" mask="url(#mask-5)"></path>
                    <circle id="Oval" fill="#742919" mask="url(#mask-5)" cx="51.5469854" cy="50.687869" r="5.15469854"></circle>
                    <circle id="Oval" fill="#742919" mask="url(#mask-5)" cx="18.9005613" cy="203.610592" r="5.15469854"></circle>
                    <path d="M86.7707588,172.682401 C89.6176202,172.682401 91.9254573,170.374564 91.9254573,167.527703 C91.9254573,164.680841 89.6176202,162.373004 86.7707588,162.373004 C83.9238974,162.373004 81.6160602,164.680841 81.6160602,167.527703 C81.6160602,170.374564 83.9238974,172.682401 86.7707588,172.682401 Z M9.45028066,144.331559 C12.2971421,144.331559 14.6049792,142.023722 14.6049792,139.176861 C14.6049792,136.329999 12.2971421,134.022162 9.45028066,134.022162 C6.60341926,134.022162 4.29558212,136.329999 4.29558212,139.176861 C4.29558212,142.023722 6.60341926,144.331559 9.45028066,144.331559 Z M110.826019,285.226653 C113.67288,285.226653 115.980717,282.918815 115.980717,280.071954 C115.980717,277.225093 113.67288,274.917256 110.826019,274.917256 C107.979157,274.917256 105.67132,277.225093 105.67132,280.071954 C105.67132,282.918815 107.979157,285.226653 110.826019,285.226653 Z" id="Oval" fill="#742919" mask="url(#mask-5)"></path>
                    <path d="M265.466975,237.116133 C268.313836,237.116133 270.621673,234.808296 270.621673,231.961434 C270.621673,229.114573 268.313836,226.806736 265.466975,226.806736 C262.620113,226.806736 260.312276,229.114573 260.312276,231.961434 C260.312276,234.808296 262.620113,237.116133 265.466975,237.116133 Z M49.8287526,189.86473 C52.675614,189.86473 54.9834511,187.556892 54.9834511,184.710031 C54.9834511,181.86317 52.675614,179.555333 49.8287526,179.555333 C46.9818912,179.555333 44.674054,181.86317 44.674054,184.710031 C44.674054,187.556892 46.9818912,189.86473 49.8287526,189.86473 Z M155.500073,9.45028066 C158.346934,9.45028066 160.654771,7.14244351 160.654771,4.29558212 C160.654771,1.44872072 158.346934,-0.859116423 155.500073,-0.859116423 C152.653211,-0.859116423 150.345374,1.44872072 150.345374,4.29558212 C150.345374,7.14244351 152.653211,9.45028066 155.500073,9.45028066 Z" id="Oval" fill="#742919" mask="url(#mask-5)"></path>
                    <path d="M86.7707588,165.80947 L86.7707588,85.9018132 C86.7707588,78.7900882 92.5461394,73.0641843 99.6631299,73.1125992 L200.168502,73.7963092 C207.288762,73.8447464 213.060873,79.6490308 213.060873,86.7641979 L213.060873,131.451374 C213.060873,138.564904 207.290497,144.331559 200.182058,144.331559 L141.746279,144.331559 C134.633506,144.331559 128.923501,150.103435 128.992616,157.222285 L129.601427,219.929824 C129.670547,227.049176 135.500668,232.783773 142.613728,232.738467 L264.607858,231.961434" id="Path-2" stroke="#742919" stroke-width="4.29491768" mask="url(#mask-5)"></path>
                    <path d="M155.500073,0.859116423 L155.500073,82.4692189 C155.500073,89.5896628 161.259812,95.40336 168.393264,95.4546798 L262.024064,96.1282827 C269.144777,96.1795108 274.974959,101.991346 275.046106,109.106112 L275.647521,169.24761 C275.718683,176.363839 269.999335,182.220213 262.891304,182.32791 L48.9696361,185.569147" id="Path-9" stroke="#742919" stroke-width="4.29491768" mask="url(#mask-5)"></path>
                    <path d="M110.826019,282.649303 L110.118517,222.511696 C110.034783,215.394243 115.741066,209.58195 122.861083,209.529597 L213.912555,208.860101 C221.033814,208.807739 226.806736,214.535602 226.806736,221.645727 L226.806736,243.136258 C226.806736,250.249927 221.045164,256.077342 213.930042,256.152238 L76.4513095,257.599383 C69.3397077,257.674242 63.4503044,251.975188 63.2966516,244.85594 L61.2752298,151.196731 C61.1217147,144.083863 55.2325967,138.417135 48.1165318,138.539826 L11.1685135,139.176861" id="Path-10" stroke="#742919" stroke-width="4.29491768" mask="url(#mask-5)"></path>
                    <text id="y" mask="url(#mask-5)" font-family="untitled-font-5" font-size="42.9491768" font-weight="normal" letter-spacing="0.038177015" fill-opacity="0.488224638" fill="#FFFFFF">
                        <tspan x="124.985673" y="52.3093971">y</tspan>
                    </text>
                </g>
                <circle id="Oval-2" fill="url(#radialGradient-6)" cx="357.283465" cy="357.283465" r="357.283465"></circle>
            </g>
            <g id="sfere" filter="url(#filter-7)" opacity="0.898720562" transform="translate(1704.545455, 173.407301)">
                <g id="Oval-2">
                    <use fill="black" fill-opacity="1" filter="url(#filter-9)" xlink:href="#path-8"></use>
                    <use fill="#FFFFFF" fill-rule="evenodd" xlink:href="#path-8"></use>
                </g>
                <path d="M192.197566,95.5619184 L323.192555,267.358626 C323.192555,267.358626 369.362921,235.146743 432.712956,229.778096 C496.062992,224.409449 544.380816,252.326414 544.380816,252.326414 L650.680029,63.3500358 C650.680029,63.3500358 548.675734,3.22118826 411.238368,15.0322119 C273.801002,26.8432355 192.197566,95.5619184 192.197566,95.5619184 Z" id="Path-3" fill="#84984A"></path>
                <path d="M566.929134,265.211167 L674.302076,77.3085183 C674.302076,77.3085183 795.6335,144.953472 848.246242,281.317108 C900.858984,417.680744 872.942019,523.979957 872.942019,523.979957 L661.417323,482.10451 C661.417323,482.10451 671.080888,418.754474 646.385111,359.699356 C621.689334,300.644238 566.929134,265.211167 566.929134,265.211167 Z" id="Path-5" fill="#B2CF5E"></path>
                <path d="M656.048676,505.726557 L867.573372,551.896922 C867.573372,551.896922 841.803865,682.891911 722.6199,781.675018 C603.435934,880.458125 481.03078,878.310666 481.03078,878.310666 L469.219757,662.491052 C469.219757,662.491052 541.159628,656.048676 592.69864,606.657122 C644.237652,557.265569 656.048676,505.726557 656.048676,505.726557 Z" id="Path-6" fill-opacity="0.383718297" fill="#D8D8D8"></path>
                <path d="M241.58912,515.390122 C241.58912,515.390122 256.621331,573.37151 313.528991,618.468146 C370.43665,663.564782 446.671439,663.564782 446.671439,663.564782 L459.556192,879.384395 C459.556192,879.384395 310.307802,889.04796 186.828919,794.559771 C63.3500358,700.071582 32.2118826,572.297781 32.2118826,572.297781 L241.58912,515.390122 Z" id="Path-7" fill="#ECA35D"></path>
                <path d="M175.017895,109.520401 L306.012885,281.317108 C306.012885,281.317108 261.989979,315.67645 240.51539,380.100215 C219.040802,444.52398 234.073014,494.989263 234.073014,494.989263 L25.7695061,550.823193 C25.7695061,550.823193 -5.3686471,463.85111 32.2118826,321.045097 C69.7924123,178.239084 175.017895,109.520401 175.017895,109.520401 Z" id="Path-8" fill="#365B9A"></path>
                <text id="TRENING-FIT" font-family="Avenir-Book, Avenir" font-size="26.8432355" font-weight="300" letter-spacing="10.7372942" fill-opacity="0.5" fill="#FFFFFF">
                    <tspan x="292.188618" y="142.962777">TRENING FIT</tspan>
                </text>
                <text id="GITARA" font-family="Avenir-Book, Avenir" font-size="26.8432355" font-weight="300" letter-spacing="10.7372942" fill-opacity="0.5" fill="#FFFFFF">
                    <tspan x="62.9071224" y="360.92985">GITARA</tspan>
                </text>
                <text id="KSIĄŻKI" font-family="Avenir-Book, Avenir" font-size="26.8432355" font-weight="300" letter-spacing="10.7372942" fill-opacity="0.50073596" fill="#FFFFFF">
                    <tspan x="174.668933" y="704.523264">KSIĄŻKI</tspan>
                </text>
                <text id="WARTOŚCI" font-family="Avenir-Book, Avenir" font-size="26.8432355" font-weight="300" letter-spacing="10.7372942" fill-opacity="0.503368433" fill="#FFFFFF">
                    <tspan x="646.613278" y="351.266285">WARTOŚCI</tspan>
                </text>
                <text id="DODAJ-STREFĘ" font-family="Avenir-Book, Avenir" font-size="17.1796707" font-weight="300" letter-spacing="6.87186839" fill-opacity="0.288637908" fill="#000000">
                    <tspan x="608.405154" y="712.776664">DODAJ</tspan>
                    <tspan x="605.132426" y="735.776664">STREFĘ</tspan>
                </text>
                <text id="/" transform="translate(426.807445, 190.780601) rotate(90.000000) translate(-426.807445, -190.780601) " font-family="untitled-font-5" font-size="53.686471" font-weight="normal" letter-spacing="0.07635403" fill-opacity="0.49889606" fill="#FFFFFF">
                    <tspan x="399.926032" y="217.280601">/</tspan>
                </text>
                <text id="/" transform="translate(750.000000, 395.862921) rotate(90.000000) translate(-750.000000, -395.862921) " font-family="untitled-font-5" font-size="53.686471" font-weight="normal" letter-spacing="0.07635403" fill-opacity="0.49889606" fill="#FFFFFF">
                    <tspan x="723.118587" y="422.362921">/</tspan>
                </text>
                <text id="/" transform="translate(131.531854, 396.936650) rotate(90.000000) translate(-131.531854, -396.936650) " font-family="untitled-font-5" font-size="53.686471" font-weight="normal" letter-spacing="0.07635403" fill-opacity="0.49889606" fill="#FFFFFF">
                    <tspan x="104.650441" y="423.43665">/</tspan>
                </text>
                <text id="/" transform="translate(448.282033, 596.650322) rotate(90.000000) translate(-448.282033, -596.650322) " font-family="untitled-font-5" font-size="53.686471" font-weight="normal" letter-spacing="0.07635403" fill-opacity="0.49889606" fill="#FFFFFF">
                    <tspan x="421.40062" y="623.150322">/</tspan>
                </text>
                <text id="/" transform="translate(265.748031, 749.119900) rotate(90.000000) translate(-265.748031, -749.119900) " font-family="untitled-font-5" font-size="53.686471" font-weight="normal" letter-spacing="0.07635403" fill-opacity="0.49889606" fill="#FFFFFF">
                    <tspan x="238.866619" y="775.6199">/</tspan>
                </text>
                <text id="=" font-family="untitled-font-5" font-size="53.686471" font-weight="normal" letter-spacing="0.0610832224" fill-opacity="0.242045969" fill="#000000">
                    <tspan x="622.195657" y="686.500358">=</tspan>
                </text>
                <g id="avatar" opacity="0.940500453" transform="translate(259.842520, 259.842520)">
                    <mask id="mask-11" fill="white">
                        <use xlink:href="#path-10"></use>
                    </mask>
                    <use id="Mask" fill-opacity="0.555649909" fill="#84984A" xlink:href="#path-10"></use>
                    <path d="M64.4237652,63.3500358 L63.5767619,123.487268 C63.4515445,132.377703 70.5630185,139.635981 79.4624015,139.699097 L198.633518,140.544282 C207.532132,140.607393 214.745884,147.877912 214.745884,156.761877 L214.745884,236.223091 C214.745884,245.11671 207.533348,252.407001 198.648639,252.506271 L22.5483178,254.473873" id="Path-13" stroke="#84984A" stroke-width="5.3686471" mask="url(#mask-11)"></path>
                    <circle id="Oval" fill="#84984A" mask="url(#mask-11)" cx="64.4237652" cy="63.3500358" r="6.44237652"></circle>
                    <circle id="Oval" fill="#84984A" mask="url(#mask-11)" cx="23.6220472" cy="254.473873" r="6.44237652"></circle>
                    <path d="M108.446671,215.819613 C112.004698,215.819613 114.889048,212.935263 114.889048,209.377237 C114.889048,205.819211 112.004698,202.93486 108.446671,202.93486 C104.888645,202.93486 102.004295,205.819211 102.004295,209.377237 C102.004295,212.935263 104.888645,215.819613 108.446671,215.819613 Z M11.8110236,180.386543 C15.3690499,180.386543 18.2534001,177.502192 18.2534001,173.944166 C18.2534001,170.38614 15.3690499,167.50179 11.8110236,167.50179 C8.25299732,167.50179 5.3686471,170.38614 5.3686471,173.944166 C5.3686471,177.502192 8.25299732,180.386543 11.8110236,180.386543 Z M138.511095,356.478168 C142.069122,356.478168 144.953472,353.593817 144.953472,350.035791 C144.953472,346.477765 142.069122,343.593414 138.511095,343.593414 C134.953069,343.593414 132.068719,346.477765 132.068719,350.035791 C132.068719,353.593817 134.953069,356.478168 138.511095,356.478168 Z" id="Oval" fill="#84984A" mask="url(#mask-11)"></path>
                    <path d="M331.782391,296.34932 C335.340417,296.34932 338.224767,293.46497 338.224767,289.906943 C338.224767,286.348917 335.340417,283.464567 331.782391,283.464567 C328.224365,283.464567 325.340014,286.348917 325.340014,289.906943 C325.340014,293.46497 328.224365,296.34932 331.782391,296.34932 Z M62.2763064,237.294202 C65.8343327,237.294202 68.7186829,234.409852 68.7186829,230.851825 C68.7186829,227.293799 65.8343327,224.409449 62.2763064,224.409449 C58.7182801,224.409449 55.8339298,227.293799 55.8339298,230.851825 C55.8339298,234.409852 58.7182801,237.294202 62.2763064,237.294202 Z M194.345025,11.8110236 C197.903051,11.8110236 200.787402,8.92667341 200.787402,5.3686471 C200.787402,1.8106208 197.903051,-1.07372942 194.345025,-1.07372942 C190.786999,-1.07372942 187.902649,1.8106208 187.902649,5.3686471 C187.902649,8.92667341 190.786999,11.8110236 194.345025,11.8110236 Z" id="Oval" fill="#84984A" mask="url(#mask-11)"></path>
                    <path d="M108.446671,207.229778 L108.446671,107.37589 C108.446671,98.4791961 115.664781,91.3161035 124.559643,91.3766128 L250.171925,92.2311181 C259.070873,92.2916551 266.284896,99.5458885 266.284896,108.438472 L266.284896,164.288801 C266.284896,173.179338 259.073042,180.386543 250.188867,180.386543 L177.155442,180.386543 C168.265851,180.386543 161.129449,187.600271 161.21583,196.497458 L161.976726,274.869757 C162.063112,283.76757 169.349636,290.934708 178.239586,290.878084 L330.708661,289.906943" id="Path-2" stroke="#84984A" stroke-width="5.3686471" mask="url(#mask-11)"></path>
                    <path d="M194.345025,1.07372942 L194.345025,103.070578 C194.345025,111.969756 201.55618,119.235844 210.459022,119.299894 L327.479418,120.141767 C336.378932,120.205792 343.665532,127.469463 343.754453,136.361544 L344.506105,211.526788 C344.595044,220.420698 337.46484,227.739763 328.5633,227.874635 L61.202577,231.925555" id="Path-9" stroke="#84984A" stroke-width="5.3686471" mask="url(#mask-11)"></path>
                    <path d="M138.511095,353.256979 L137.626855,278.096598 C137.522203,269.201157 144.653954,261.936915 153.552599,261.871484 L267.349334,261.034743 C276.249531,260.969301 283.464567,268.128022 283.464567,277.014304 L283.464567,303.873313 C283.464567,312.764023 276.263717,320.047166 267.349868,320.140996 L95.5706765,321.949198 C86.6707738,322.042881 79.3003407,314.907671 79.1085762,306.022582 L76.5821898,188.96668 C76.3903255,180.07697 69.0300667,172.994656 60.1363614,173.147996 L13.9584825,173.944166" id="Path-10" stroke="#84984A" stroke-width="5.3686471" mask="url(#mask-11)"></path>
                    <text id="y" mask="url(#mask-11)" font-family="untitled-font-5" font-size="53.686471" font-weight="normal" letter-spacing="0.0477212687" fill-opacity="0.488224638" fill="#FFFFFF">
                        <tspan x="156.20377" y="65.884753">y</tspan>
                    </text>
                </g>
                <circle id="Oval-2" fill="url(#radialGradient-12)" cx="446.671439" cy="447.745168" r="446.671439"></circle>
            </g>
            <g id="sfere" filter="url(#filter-13)" opacity="0.714221014" transform="translate(30.064424, 381.173944)">
                <g id="Oval-2">
                    <use fill="black" fill-opacity="1" filter="url(#filter-15)" xlink:href="#path-14"></use>
                    <use fill="#FFFFFF" fill-rule="evenodd" xlink:href="#path-14"></use>
                </g>
                <path d="M155.820331,77.9629882 L260.632535,215.421616 C260.632535,215.421616 297.574541,189.648123 348.26241,185.352541 C398.950279,181.056959 437.610518,203.393986 437.610518,203.393986 L522.663044,52.1894955 C522.663044,52.1894955 441.046984,4.07897581 331.080081,13.5292565 C221.113179,22.9795371 155.820331,77.9629882 155.820331,77.9629882 Z" id="Path-3" fill="#84984A"></path>
                <path d="M455.651963,213.703383 L541.563605,63.358009 C541.563605,63.358009 638.643761,117.482344 680.740466,226.590129 C722.837171,335.697915 700.500144,420.750441 700.500144,420.750441 L531.254208,387.244901 C531.254208,387.244901 538.986256,336.557032 519.226578,289.305628 C499.4669,242.054225 455.651963,213.703383 455.651963,213.703383 Z" id="Path-5" fill="#B2CF5E"></path>
                <path d="M526.958626,406.145462 L696.204561,443.087468 C696.204561,443.087468 675.585767,547.899672 580.223844,626.938383 C484.861921,705.977094 386.922649,704.258861 386.922649,704.258861 L377.472368,531.57646 C377.472368,531.57646 435.033169,526.421761 476.270757,486.902406 C517.508345,447.38305 526.958626,406.145462 526.958626,406.145462 Z" id="Path-6" fill-opacity="0.383718297" fill="#D8D8D8"></path>
                <path d="M195.339687,413.87751 C195.339687,413.87751 207.367316,460.269797 252.900487,496.352686 C298.433657,532.435576 359.430923,532.435576 359.430923,532.435576 L369.74032,705.117977 C369.74032,705.117977 250.323138,712.850025 151.524749,637.24778 C52.7263602,561.645535 27.811984,459.41068 27.811984,459.41068 L195.339687,413.87751 Z" id="Path-7" fill="#ECA35D"></path>
                <path d="M142.074468,89.1315017 L246.886672,226.590129 C246.886672,226.590129 211.662899,254.081855 194.48057,305.62884 C177.298242,357.175826 189.325872,397.554298 189.325872,397.554298 L22.6572854,442.228352 C22.6572854,442.228352 -2.25709087,372.639921 27.811984,258.377437 C57.8810588,144.114953 142.074468,89.1315017 142.074468,89.1315017 Z" id="Path-8" fill="#365B9A"></path>
                <text id="TRENING-FIT" font-family="Avenir-Book, Avenir" font-size="21.4745884" font-weight="300" letter-spacing="8.58983536" fill-opacity="0.5" fill="#FFFFFF">
                    <tspan x="235.842873" y="115.2862">TRENING FIT</tspan>
                </text>
                <text id="GITARA" font-family="Avenir-Book, Avenir" font-size="21.4745884" font-weight="300" letter-spacing="8.58983536" fill-opacity="0.5" fill="#FFFFFF">
                    <tspan x="52.3817967" y="289.686834">GITARA</tspan>
                </text>
                <text id="KSIĄŻKI" font-family="Avenir-Book, Avenir" font-size="21.4745884" font-weight="300" letter-spacing="8.58983536" fill-opacity="0.50073596" fill="#FFFFFF">
                    <tspan x="141.805863" y="564.60409">KSIĄŻKI</tspan>
                </text>
                <text id="WARTOŚCI" font-family="Avenir-Book, Avenir" font-size="21.4745884" font-weight="300" letter-spacing="8.58983536" fill-opacity="0.503368433" fill="#FFFFFF">
                    <tspan x="519.422999" y="281.954786">WARTOŚCI</tspan>
                </text>
                <text id="/" transform="translate(343.537270, 153.946439) rotate(90.000000) translate(-343.537270, -153.946439) " font-family="untitled-font-5" font-size="42.9491768" font-weight="normal" letter-spacing="0.0610832224" fill-opacity="0.49889606" fill="#FFFFFF">
                    <tspan x="322.03214" y="174.946439">/</tspan>
                </text>
                <text id="/" transform="translate(602.131313, 318.037676) rotate(90.000000) translate(-602.131313, -318.037676) " font-family="untitled-font-5" font-size="42.9491768" font-weight="normal" letter-spacing="0.0610832224" fill-opacity="0.49889606" fill="#FFFFFF">
                    <tspan x="580.626183" y="339.037676">/</tspan>
                </text>
                <text id="/" transform="translate(107.280253, 318.896793) rotate(90.000000) translate(-107.280253, -318.896793) " font-family="untitled-font-5" font-size="42.9491768" font-weight="normal" letter-spacing="0.0610832224" fill-opacity="0.49889606" fill="#FFFFFF">
                    <tspan x="85.7751231" y="339.896793">/</tspan>
                </text>
                <text id="/" transform="translate(360.719598, 478.692447) rotate(90.000000) translate(-360.719598, -478.692447) " font-family="untitled-font-5" font-size="42.9491768" font-weight="normal" letter-spacing="0.0610832224" fill-opacity="0.49889606" fill="#FFFFFF">
                    <tspan x="339.214468" y="499.692447">/</tspan>
                </text>
                <text id="=" font-family="untitled-font-5" font-size="42.9491768" font-weight="normal" letter-spacing="0.0488665795" fill-opacity="0.242045969" fill="#000000">
                    <tspan x="499.875348" y="550.380316">=</tspan>
                </text>
                <g id="avatar" opacity="0.940500453" transform="translate(209.944666, 209.407801)">
                    <mask id="mask-17" fill="white">
                        <use xlink:href="#path-16"></use>
                    </mask>
                    <use id="Mask" fill-opacity="0.555649909" fill="#84984A" xlink:href="#path-16"></use>
                    <path d="M51.5469854,50.687869 L50.869278,98.8050976 C50.7690885,105.918546 56.4489891,111.725994 63.56543,111.776465 L158.945724,112.452921 C166.057804,112.503362 171.823285,118.303497 171.823285,125.428903 L171.823285,189.007708 C171.823285,196.123705 166.052363,201.956839 158.943496,202.036268 L18.0414449,203.610592" id="Path-13" stroke="#84984A" stroke-width="4.29491768" mask="url(#mask-17)"></path>
                    <circle id="Oval" fill="#84984A" mask="url(#mask-17)" cx="51.5469854" cy="50.687869" r="5.15469854"></circle>
                    <circle id="Oval" fill="#84984A" mask="url(#mask-17)" cx="18.9005613" cy="203.610592" r="5.15469854"></circle>
                    <path d="M86.7707588,172.682401 C89.6176202,172.682401 91.9254573,170.374564 91.9254573,167.527703 C91.9254573,164.680841 89.6176202,162.373004 86.7707588,162.373004 C83.9238974,162.373004 81.6160602,164.680841 81.6160602,167.527703 C81.6160602,170.374564 83.9238974,172.682401 86.7707588,172.682401 Z M9.45028066,144.331559 C12.2971421,144.331559 14.6049792,142.023722 14.6049792,139.176861 C14.6049792,136.329999 12.2971421,134.022162 9.45028066,134.022162 C6.60341926,134.022162 4.29558212,136.329999 4.29558212,139.176861 C4.29558212,142.023722 6.60341926,144.331559 9.45028066,144.331559 Z M110.826019,285.226653 C113.67288,285.226653 115.980717,282.918815 115.980717,280.071954 C115.980717,277.225093 113.67288,274.917256 110.826019,274.917256 C107.979157,274.917256 105.67132,277.225093 105.67132,280.071954 C105.67132,282.918815 107.979157,285.226653 110.826019,285.226653 Z" id="Oval" fill="#84984A" mask="url(#mask-17)"></path>
                    <path d="M265.466975,237.116133 C268.313836,237.116133 270.621673,234.808296 270.621673,231.961434 C270.621673,229.114573 268.313836,226.806736 265.466975,226.806736 C262.620113,226.806736 260.312276,229.114573 260.312276,231.961434 C260.312276,234.808296 262.620113,237.116133 265.466975,237.116133 Z M49.8287526,189.86473 C52.675614,189.86473 54.9834511,187.556892 54.9834511,184.710031 C54.9834511,181.86317 52.675614,179.555333 49.8287526,179.555333 C46.9818912,179.555333 44.674054,181.86317 44.674054,184.710031 C44.674054,187.556892 46.9818912,189.86473 49.8287526,189.86473 Z M155.500073,9.45028066 C158.346934,9.45028066 160.654771,7.14244351 160.654771,4.29558212 C160.654771,1.44872072 158.346934,-0.859116423 155.500073,-0.859116423 C152.653211,-0.859116423 150.345374,1.44872072 150.345374,4.29558212 C150.345374,7.14244351 152.653211,9.45028066 155.500073,9.45028066 Z" id="Oval" fill="#84984A" mask="url(#mask-17)"></path>
                    <path d="M86.7707588,165.80947 L86.7707588,85.9018132 C86.7707588,78.7900882 92.5461394,73.0641843 99.6631299,73.1125992 L200.168502,73.7963092 C207.288762,73.8447464 213.060873,79.6490308 213.060873,86.7641979 L213.060873,131.451374 C213.060873,138.564904 207.290497,144.331559 200.182058,144.331559 L141.746279,144.331559 C134.633506,144.331559 128.923501,150.103435 128.992616,157.222285 L129.601427,219.929824 C129.670547,227.049176 135.500668,232.783773 142.613728,232.738467 L264.607858,231.961434" id="Path-2" stroke="#84984A" stroke-width="4.29491768" mask="url(#mask-17)"></path>
                    <path d="M155.500073,0.859116423 L155.500073,82.4692189 C155.500073,89.5896628 161.259812,95.40336 168.393264,95.4546798 L262.024064,96.1282827 C269.144777,96.1795108 274.974959,101.991346 275.046106,109.106112 L275.647521,169.24761 C275.718683,176.363839 269.999335,182.220213 262.891304,182.32791 L48.9696361,185.569147" id="Path-9" stroke="#84984A" stroke-width="4.29491768" mask="url(#mask-17)"></path>
                    <path d="M110.826019,282.649303 L110.118517,222.511696 C110.034783,215.394243 115.741066,209.58195 122.861083,209.529597 L213.912555,208.860101 C221.033814,208.807739 226.806736,214.535602 226.806736,221.645727 L226.806736,243.136258 C226.806736,250.249927 221.045164,256.077342 213.930042,256.152238 L76.4513095,257.599383 C69.3397077,257.674242 63.4503044,251.975188 63.2966516,244.85594 L61.2752298,151.196731 C61.1217147,144.083863 55.2325967,138.417135 48.1165318,138.539826 L11.1685135,139.176861" id="Path-10" stroke="#84984A" stroke-width="4.29491768" mask="url(#mask-17)"></path>
                    <text id="y" mask="url(#mask-17)" font-family="untitled-font-5" font-size="42.9491768" font-weight="normal" letter-spacing="0.038177015" fill-opacity="0.488224638" fill="#FFFFFF">
                        <tspan x="124.985673" y="52.3093971">y</tspan>
                    </text>
                </g>
                <circle id="Oval-2" fill="url(#radialGradient-18)" cx="357.283465" cy="357.283465" r="357.283465"></circle>
            </g>
            <g id="sfere" filter="url(#filter-19)" opacity="0.900305707" transform="translate(406.943450, 193.808160)">
                <g id="Oval-2">
                    <use fill="black" fill-opacity="1" filter="url(#filter-21)" xlink:href="#path-20"></use>
                    <use fill="#FFFFFF" fill-rule="evenodd" xlink:href="#path-20"></use>
                </g>
                <path d="M192.734431,97.1725125 L323.72942,268.96922 C323.72942,268.96922 369.899785,236.757337 433.249821,231.38869 C496.599857,226.020043 544.917681,253.937008 544.917681,253.937008 L651.216893,64.9606299 C651.216893,64.9606299 549.212598,4.83178239 411.775233,16.642806 C274.337867,28.4538296 192.734431,97.1725125 192.734431,97.1725125 Z" id="Path-3" fill="#883625"></path>
                <path d="M567.465999,266.821761 L674.838941,78.9191124 C674.838941,78.9191124 796.170365,146.564066 848.783107,282.927702 C901.395848,419.291339 873.478883,525.590551 873.478883,525.590551 L661.954188,483.715104 C661.954188,483.715104 671.617752,420.365068 646.921976,361.30995 C622.226199,302.254832 567.465999,266.821761 567.465999,266.821761 Z" id="Path-5" fill="#40C48D"></path>
                <path d="M656.58554,507.337151 L868.110236,553.507516 C868.110236,553.507516 842.34073,684.502505 723.156764,783.285612 C603.972799,882.068719 481.567645,879.92126 481.567645,879.92126 L469.756621,664.101646 C469.756621,664.101646 541.696492,657.65927 593.235505,608.267717 C644.774517,558.876163 656.58554,507.337151 656.58554,507.337151 Z" id="Path-6" fill="#EB445F"></path>
                <text id="SZKOLENIA" font-family="Avenir-Book, Avenir" font-size="26.8432355" font-weight="300" letter-spacing="10.7372942" fill-opacity="0.503368433" fill="#FFFFFF">
                    <tspan x="554.62151" y="670.700787">SZKOLENIA</tspan>
                </text>
                <text id="/" transform="translate(666.785970, 715.297423) rotate(90.000000) translate(-666.785970, -715.297423) " font-family="untitled-font-5" font-size="53.686471" font-weight="normal" letter-spacing="0.07635403" fill-opacity="0.49889606" fill="#FFFFFF">
                    <tspan x="639.904557" y="741.797423">/</tspan>
                </text>
                <path d="M242.125984,517.000716 C242.125984,517.000716 257.158196,574.982105 314.065855,620.07874 C370.973515,665.175376 447.208304,665.175376 447.208304,665.175376 L460.093057,880.994989 C460.093057,880.994989 310.844667,890.658554 187.365784,796.170365 C63.8869005,701.682176 32.7487473,573.908375 32.7487473,573.908375 L242.125984,517.000716 Z" id="Path-7" fill="#BEAD00"></path>
                <text id="MARKETING" font-family="Avenir-Book, Avenir" font-size="26.8432355" font-weight="300" letter-spacing="10.7372942" fill-opacity="0.5" fill="#FFFFFF">
                    <tspan x="145.678239" y="705.060129">MARKETING</tspan>
                </text>
                <text id="/" transform="translate(269.506084, 746.435576) rotate(90.000000) translate(-269.506084, -746.435576) " font-family="untitled-font-5" font-size="53.686471" font-weight="normal" letter-spacing="0.07635403" fill-opacity="0.49889606" fill="#FFFFFF">
                    <tspan x="242.624672" y="772.935576">/</tspan>
                </text>
                <path d="M175.55476,111.130995 L306.549749,282.927702 C306.549749,282.927702 262.526843,317.287044 241.052255,381.710809 C219.577666,446.134574 234.609878,496.599857 234.609878,496.599857 L26.3063708,552.433787 C26.3063708,552.433787 -4.83178239,465.461704 32.7487473,322.655691 C70.329277,179.849678 175.55476,111.130995 175.55476,111.130995 Z" id="Path-8" fill="#5F7B10"></path>
                <text id="KARIERA" font-family="Avenir-Book, Avenir" font-size="26.8432355" font-weight="300" letter-spacing="10.7372942" fill-opacity="0.50073596" fill="#FFFFFF">
                    <tspan x="48.2507158" y="359.319256">KARIERA</tspan>
                </text>
                <text id="/" transform="translate(132.068719, 404.989621) rotate(90.000000) translate(-132.068719, -404.989621) " font-family="untitled-font-5" font-size="53.686471" font-weight="normal" letter-spacing="0.07635403" fill-opacity="0.49889606" fill="#FFFFFF">
                    <tspan x="105.187306" y="431.489621">/</tspan>
                </text>
                <text id="SPRZEDAŻ" font-family="Avenir-Book, Avenir" font-size="26.8432355" font-weight="300" letter-spacing="10.7372942" fill-opacity="0.5" fill="#FFFFFF">
                    <tspan x="324.601825" y="144.573372">SPRZEDAŻ</tspan>
                </text>
                <text id="/" transform="translate(427.344309, 192.391195) rotate(90.000000) translate(-427.344309, -192.391195) " font-family="untitled-font-5" font-size="53.686471" font-weight="normal" letter-spacing="0.07635403" fill-opacity="0.49889606" fill="#FFFFFF">
                    <tspan x="400.462897" y="218.891195">/</tspan>
                </text>
                <text id="/" transform="translate(750.536865, 397.473515) rotate(90.000000) translate(-750.536865, -397.473515) " font-family="untitled-font-5" font-size="53.686471" font-weight="normal" letter-spacing="0.07635403" fill-opacity="0.49889606" fill="#FFFFFF">
                    <tspan x="723.655452" y="423.973515">/</tspan>
                </text>
                <text id="/" transform="translate(448.818898, 598.260916) rotate(90.000000) translate(-448.818898, -598.260916) " font-family="untitled-font-5" font-size="53.686471" font-weight="normal" letter-spacing="0.07635403" fill-opacity="0.49889606" fill="#FFFFFF">
                    <tspan x="421.937485" y="624.760916">/</tspan>
                </text>
                <text id="WARTOŚCI" font-family="Avenir-Book, Avenir" font-size="26.8432355" font-weight="300" letter-spacing="10.7372942" fill-opacity="0.503368433" fill="#FFFFFF">
                    <tspan x="647.150143" y="352.876879">WARTOŚCI</tspan>
                </text>
                <g id="avatar" opacity="0.940500453" transform="translate(260.379384, 261.453114)">
                    <mask id="mask-23" fill="white">
                        <use xlink:href="#path-22"></use>
                    </mask>
                    <use id="Mask" fill-opacity="0.589192708" fill="#AF1E00" xlink:href="#path-22"></use>
                    <path d="M64.4237652,63.3500358 L63.5767619,123.487268 C63.4515445,132.377703 70.5630185,139.635981 79.4624015,139.699097 L198.633518,140.544282 C207.532132,140.607393 214.745884,147.877912 214.745884,156.761877 L214.745884,236.223091 C214.745884,245.11671 207.533348,252.407001 198.648639,252.506271 L22.5483178,254.473873" id="Path-13" stroke="#742919" stroke-width="5.3686471" mask="url(#mask-23)"></path>
                    <circle id="Oval" fill="#742919" mask="url(#mask-23)" cx="64.4237652" cy="63.3500358" r="6.44237652"></circle>
                    <circle id="Oval" fill="#742919" mask="url(#mask-23)" cx="23.6220472" cy="254.473873" r="6.44237652"></circle>
                    <path d="M108.446671,215.819613 C112.004698,215.819613 114.889048,212.935263 114.889048,209.377237 C114.889048,205.819211 112.004698,202.93486 108.446671,202.93486 C104.888645,202.93486 102.004295,205.819211 102.004295,209.377237 C102.004295,212.935263 104.888645,215.819613 108.446671,215.819613 Z M11.8110236,180.386543 C15.3690499,180.386543 18.2534001,177.502192 18.2534001,173.944166 C18.2534001,170.38614 15.3690499,167.50179 11.8110236,167.50179 C8.25299732,167.50179 5.3686471,170.38614 5.3686471,173.944166 C5.3686471,177.502192 8.25299732,180.386543 11.8110236,180.386543 Z M138.511095,356.478168 C142.069122,356.478168 144.953472,353.593817 144.953472,350.035791 C144.953472,346.477765 142.069122,343.593414 138.511095,343.593414 C134.953069,343.593414 132.068719,346.477765 132.068719,350.035791 C132.068719,353.593817 134.953069,356.478168 138.511095,356.478168 Z" id="Oval" fill="#742919" mask="url(#mask-23)"></path>
                    <path d="M331.782391,296.34932 C335.340417,296.34932 338.224767,293.46497 338.224767,289.906943 C338.224767,286.348917 335.340417,283.464567 331.782391,283.464567 C328.224365,283.464567 325.340014,286.348917 325.340014,289.906943 C325.340014,293.46497 328.224365,296.34932 331.782391,296.34932 Z M62.2763064,237.294202 C65.8343327,237.294202 68.7186829,234.409852 68.7186829,230.851825 C68.7186829,227.293799 65.8343327,224.409449 62.2763064,224.409449 C58.7182801,224.409449 55.8339298,227.293799 55.8339298,230.851825 C55.8339298,234.409852 58.7182801,237.294202 62.2763064,237.294202 Z M194.345025,11.8110236 C197.903051,11.8110236 200.787402,8.92667341 200.787402,5.3686471 C200.787402,1.8106208 197.903051,-1.07372942 194.345025,-1.07372942 C190.786999,-1.07372942 187.902649,1.8106208 187.902649,5.3686471 C187.902649,8.92667341 190.786999,11.8110236 194.345025,11.8110236 Z" id="Oval" fill="#742919" mask="url(#mask-23)"></path>
                    <path d="M108.446671,207.229778 L108.446671,107.37589 C108.446671,98.4791961 115.664781,91.3161035 124.559643,91.3766128 L250.171925,92.2311181 C259.070873,92.2916551 266.284896,99.5458885 266.284896,108.438472 L266.284896,164.288801 C266.284896,173.179338 259.073042,180.386543 250.188867,180.386543 L177.155442,180.386543 C168.265851,180.386543 161.129449,187.600271 161.21583,196.497458 L161.976726,274.869757 C162.063112,283.76757 169.349636,290.934708 178.239586,290.878084 L330.708661,289.906943" id="Path-2" stroke="#742919" stroke-width="5.3686471" mask="url(#mask-23)"></path>
                    <path d="M194.345025,1.07372942 L194.345025,103.070578 C194.345025,111.969756 201.55618,119.235844 210.459022,119.299894 L327.479418,120.141767 C336.378932,120.205792 343.665532,127.469463 343.754453,136.361544 L344.506105,211.526788 C344.595044,220.420698 337.46484,227.739763 328.5633,227.874635 L61.202577,231.925555" id="Path-9" stroke="#742919" stroke-width="5.3686471" mask="url(#mask-23)"></path>
                    <path d="M138.511095,353.256979 L137.626855,278.096598 C137.522203,269.201157 144.653954,261.936915 153.552599,261.871484 L267.349334,261.034743 C276.249531,260.969301 283.464567,268.128022 283.464567,277.014304 L283.464567,303.873313 C283.464567,312.764023 276.263717,320.047166 267.349868,320.140996 L95.5706765,321.949198 C86.6707738,322.042881 79.3003407,314.907671 79.1085762,306.022582 L76.5821898,188.96668 C76.3903255,180.07697 69.0300667,172.994656 60.1363614,173.147996 L13.9584825,173.944166" id="Path-10" stroke="#742919" stroke-width="5.3686471" mask="url(#mask-23)"></path>
                    <text id="y" mask="url(#mask-23)" font-family="untitled-font-5" font-size="53.686471" font-weight="normal" letter-spacing="0.0477212687" fill-opacity="0.488224638" fill="#FFFFFF">
                        <tspan x="156.20377" y="65.884753">y</tspan>
                    </text>
                </g>
                <circle id="Oval-2" fill="url(#radialGradient-12)" cx="447.208304" cy="446.671439" r="446.671439"></circle>
            </g>
            <g id="sfere-center" transform="translate(1006.084467, 35.969936)">
                <g id="Oval-2">
                    <use fill="black" fill-opacity="1" filter="url(#filter-25)" xlink:href="#path-24"></use>
                    <use fill="#FFFFFF" fill-rule="evenodd" xlink:href="#path-24"></use>
                </g>
                <path d="M214.611668,108.044023 L361.981031,301.315319 C361.981031,301.315319 413.922691,265.076951 485.191482,259.037223 C556.460272,252.997495 610.817824,284.40408 610.817824,284.40408 L730.404438,71.805655 C730.404438,71.805655 615.649606,4.1607015 461.03257,17.4481031 C306.415533,30.7355047 214.611668,108.044023 214.611668,108.044023 Z" id="Path-3" fill="#912B91"></path>
                <path d="M636.184681,298.899427 L756.979241,87.5089477 C756.979241,87.5089477 893.477094,163.60952 952.666428,317.018611 C1011.85576,470.427702 980.449177,590.014316 980.449177,590.014316 L742.483894,542.904438 C742.483894,542.904438 753.355404,471.635648 725.572656,405.19864 C697.789907,338.761632 636.184681,298.899427 636.184681,298.899427 Z" id="Path-5" fill="#5252CC"></path>
                <path d="M736.444166,569.479241 L974.409449,621.420902 C974.409449,621.420902 945.418754,768.790265 811.336793,879.92126 C677.254832,991.052255 539.549034,988.636364 539.549034,988.636364 L526.261632,745.839298 C526.261632,745.839298 607.193987,738.591625 665.175376,683.026127 C723.156764,627.46063 736.444166,569.479241 736.444166,569.479241 Z" id="Path-6" fill="#4F98EB"></path>
                <text id="DESIGN-THINKING" font-family="Avenir-Book, Avenir" font-size="30.1986399" font-weight="300" letter-spacing="12.079456" fill-opacity="0.503368433" fill="#FFFFFF">
                    <tspan x="656.266777" y="731.145311">DESIGN</tspan>
                    <tspan x="627.910254" y="772.145311">THINKING</tspan>
                </text>
                <text id="/" transform="translate(733.424302, 821.241231) rotate(90.000000) translate(-733.424302, -821.241231) " font-family="untitled-font-5" font-size="60.3972799" font-weight="normal" letter-spacing="0.0858982877" fill-opacity="0.49889606" fill="#FFFFFF">
                    <tspan x="703.182713" y="850.741231">/</tspan>
                </text>
                <path d="M270.177165,580.350752 C270.177165,580.350752 287.088404,645.579814 351.10952,696.313529 C415.130637,747.047244 500.894775,747.047244 500.894775,747.047244 L515.390122,989.844309 C515.390122,989.844309 347.485684,1000.71582 208.57194,894.416607 C69.6581961,788.117394 34.6277738,644.371868 34.6277738,644.371868 L270.177165,580.350752 Z" id="Path-7" fill="#93C600"></path>
                <text id="WORK-LIFE-BALANCE" font-family="Avenir-Book, Avenir" font-size="30.1986399" font-weight="300" letter-spacing="12.079456" fill-opacity="0.5" fill="#FFFFFF">
                    <tspan x="149.27691" y="767.383679">WORK-LIFE</tspan>
                    <tspan x="171.472911" y="808.383679">BALANCE</tspan>
                </text>
                <text id="/" transform="translate(300.979778, 855.063708) rotate(90.000000) translate(-300.979778, -855.063708) " font-family="untitled-font-5" font-size="60.3972799" font-weight="normal" letter-spacing="0.0858982877" fill-opacity="0.49889606" fill="#FFFFFF">
                    <tspan x="270.738189" y="884.563708">/</tspan>
                </text>
                <path d="M195.284538,123.747316 L342.653901,317.018611 C342.653901,317.018611 293.128132,355.67287 268.96922,428.149606 C244.810308,500.626342 261.721546,557.399785 261.721546,557.399785 L27.3801002,620.212956 C27.3801002,620.212956 -7.65032212,522.369363 34.6277738,361.712598 C76.9058697,201.055834 195.284538,123.747316 195.284538,123.747316 Z" id="Path-8" fill="#B78500"></path>
                <text id="KARIERA" font-family="Avenir-Book, Avenir" font-size="30.1986399" font-weight="300" letter-spacing="12.079456" fill-opacity="0.50073596" fill="#FFFFFF">
                    <tspan x="52.0674884" y="402.584109">KARIERA</tspan>
                </text>
                <text id="/" transform="translate(146.362742, 454.025770) rotate(90.000000) translate(-146.362742, -454.025770) " font-family="untitled-font-5" font-size="60.3972799" font-weight="normal" letter-spacing="0.0858982877" fill-opacity="0.49889606" fill="#FFFFFF">
                    <tspan x="116.121153" y="483.52577">/</tspan>
                </text>
                <text id="EMOCJE" font-family="Avenir-Book, Avenir" font-size="30.1986399" font-weight="300" letter-spacing="12.079456" fill-opacity="0.5" fill="#FFFFFF">
                    <tspan x="386.502326" y="160.994989">EMOCJE</tspan>
                </text>
                <text id="/" transform="translate(478.547781, 214.852541) rotate(90.000000) translate(-478.547781, -214.852541) " font-family="untitled-font-5" font-size="60.3972799" font-weight="normal" letter-spacing="0.0858982877" fill-opacity="0.49889606" fill="#FFFFFF">
                    <tspan x="448.306192" y="244.352541">/</tspan>
                </text>
                <text id="/" transform="translate(842.139406, 445.570150) rotate(90.000000) translate(-842.139406, -445.570150) " font-family="untitled-font-5" font-size="60.3972799" font-weight="normal" letter-spacing="0.0858982877" fill-opacity="0.49889606" fill="#FFFFFF">
                    <tspan x="811.897817" y="475.07015">/</tspan>
                </text>
                <text id="/" transform="translate(502.706693, 671.455977) rotate(90.000000) translate(-502.706693, -671.455977) " font-family="untitled-font-5" font-size="60.3972799" font-weight="normal" letter-spacing="0.0858982877" fill-opacity="0.49889606" fill="#FFFFFF">
                    <tspan x="472.465104" y="700.955977">/</tspan>
                </text>
                <text id="WARTOŚCI" font-family="Avenir-Book, Avenir" font-size="30.1986399" font-weight="300" letter-spacing="12.079456" fill-opacity="0.503368433" fill="#FFFFFF">
                    <tspan x="725.829344" y="395.336435">WARTOŚCI</tspan>
                </text>
                <g id="avatar" opacity="0.940500453" transform="translate(290.712241, 292.859699)">
                    <mask id="mask-27" fill="white">
                        <use xlink:href="#path-26"></use>
                    </mask>
                    <use id="Mask" fill-opacity="0.693755661" fill="#E04059" xlink:href="#path-26"></use>
                    <path d="M72.4767359,71.2687903 L71.5238572,138.923177 C71.3829876,148.924916 79.3833958,157.090478 89.3952016,157.161484 L223.462708,158.112317 C233.473649,158.183317 241.58912,166.362651 241.58912,176.357112 L241.58912,265.750977 C241.58912,275.756299 233.475016,283.957876 223.479719,284.069555 L25.3668576,286.283107" id="Path-13" stroke="#E04059" stroke-width="6.03972799" mask="url(#mask-27)"></path>
                    <circle id="Oval" fill="#E04059" mask="url(#mask-27)" cx="72.4767359" cy="71.2687903" r="7.24767359"></circle>
                    <circle id="Oval" fill="#E04059" mask="url(#mask-27)" cx="26.5748031" cy="286.283107" r="7.24767359"></circle>
                    <path d="M122.002505,242.797065 C126.005285,242.797065 129.250179,239.552171 129.250179,235.549392 C129.250179,231.546612 126.005285,228.301718 122.002505,228.301718 C117.999726,228.301718 114.754832,231.546612 114.754832,235.549392 C114.754832,239.552171 117.999726,242.797065 122.002505,242.797065 Z M13.2874016,202.93486 C17.2901812,202.93486 20.5350752,199.689966 20.5350752,195.687187 C20.5350752,191.684407 17.2901812,188.439513 13.2874016,188.439513 C9.28462198,188.439513 6.03972799,191.684407 6.03972799,195.687187 C6.03972799,199.689966 9.28462198,202.93486 13.2874016,202.93486 Z M155.824982,401.037938 C159.827762,401.037938 163.072656,397.793044 163.072656,393.790265 C163.072656,389.787485 159.827762,386.542591 155.824982,386.542591 C151.822203,386.542591 148.577309,389.787485 148.577309,393.790265 C148.577309,397.793044 151.822203,401.037938 155.824982,401.037938 Z" id="Oval" fill="#E04059" mask="url(#mask-27)"></path>
                    <path d="M373.25519,333.392985 C377.257969,333.392985 380.502863,330.148091 380.502863,326.145311 C380.502863,322.142532 377.257969,318.897638 373.25519,318.897638 C369.25241,318.897638 366.007516,322.142532 366.007516,326.145311 C366.007516,330.148091 369.25241,333.392985 373.25519,333.392985 Z M70.0608447,266.955977 C74.0636243,266.955977 77.3085183,263.711083 77.3085183,259.708304 C77.3085183,255.705524 74.0636243,252.46063 70.0608447,252.46063 C66.0580651,252.46063 62.8131711,255.705524 62.8131711,259.708304 C62.8131711,263.711083 66.0580651,266.955977 70.0608447,266.955977 Z M218.638153,13.2874016 C222.640933,13.2874016 225.885827,10.0425076 225.885827,6.03972799 C225.885827,2.0369484 222.640933,-1.2079456 218.638153,-1.2079456 C214.635374,-1.2079456 211.39048,2.0369484 211.39048,6.03972799 C211.39048,10.0425076 214.635374,13.2874016 218.638153,13.2874016 Z" id="Oval" fill="#E04059" mask="url(#mask-27)"></path>
                    <path d="M122.002505,233.1335 L122.002505,120.797876 C122.002505,110.789096 130.122878,102.730616 140.129598,102.798689 L281.443416,103.760008 C291.454732,103.828112 299.570508,111.989125 299.570508,121.993281 L299.570508,184.824901 C299.570508,194.826756 291.457173,202.93486 281.446344,202.93486 L199.316004,202.93486 C189.306305,202.93486 181.27063,211.050305 181.367808,221.05964 L182.223817,309.228477 C182.321001,319.238517 190.51834,327.301546 200.519534,327.237845 L372.047244,326.145311" id="Path-2" stroke="#E04059" stroke-width="6.03972799" mask="url(#mask-27)"></path>
                    <path d="M218.638153,1.2079456 L218.638153,115.954401 C218.638153,125.965976 226.750702,134.140325 236.7664,134.21238 L368.414345,135.159488 C378.426299,135.231516 386.623724,143.403146 386.72376,153.406737 L387.569369,237.967637 C387.669425,247.973286 379.647945,256.207233 369.633713,256.358964 L68.8528991,260.916249" id="Path-9" stroke="#E04059" stroke-width="6.03972799" mask="url(#mask-27)"></path>
                    <path d="M155.824982,397.414102 L154.830212,312.858672 C154.712479,302.851302 162.735698,294.67903 172.726959,294.605565 L300.787715,293.663941 C310.789549,293.590399 318.897638,301.644025 318.897638,311.641091 L318.897638,341.857477 C318.897638,351.859526 310.779852,360.053238 300.780596,360.158494 L107.505016,362.192974 C97.4992501,362.298297 89.2128832,354.27113 88.9971482,344.275405 L86.1549635,212.587515 C85.9391162,202.586592 77.658825,194.618988 67.6534066,194.791495 L15.7032928,195.687187" id="Path-10" stroke="#E04059" stroke-width="6.03972799" mask="url(#mask-27)"></path>
                    <text id="y" mask="url(#mask-27)" font-family="untitled-font-5" font-size="60.3972799" font-weight="normal" letter-spacing="0.0536864278" fill-opacity="0.488224638" fill="#FFFFFF">
                        <tspan x="175.729241" y="73.4953472">y</tspan>
                    </text>
                </g>
                <circle id="Oval-2" fill="url(#radialGradient-28)" cx="501.431639" cy="501.431639" r="501.431639"></circle>
            </g>
        </g>
    </g>
</svg>