<?xml version="1.0" encoding="UTF-8"?>
<svg width="482px" height="144px" viewBox="0 0 482 144" version="1.1" xmlns="http://www.w3.org/2000/svg" xmlns:xlink="http://www.w3.org/1999/xlink">
    <!-- Generator: Sketch 43.2 (39069) - http://www.bohemiancoding.com/sketch -->
    <title>umaster-bizness</title>
    <desc>Created with Sketch.</desc>
    <defs></defs>
    <g id="web-page" stroke="none" stroke-width="1" fill="none" fill-rule="evenodd">
        <g id="umaster-bizness">
            <g id="bizness" transform="translate(11.000000, 11.000000)">
                <g id="uMaster" transform="translate(0.000000, 13.640811)" stroke="#473C80" stroke-linecap="round">
                    <path d="M2.84217094e-14,94.6798881 C2.84217094e-14,94.6798881 49.9013452,71.686201 41.8092351,37.8719552 C33.7171251,4.05770949 6.74342502,108.205586 56.6447702,102.795307 C106.546115,97.3850277 102.50006,2.79110068e-13 89.0132103,37.8719552 C75.5263602,75.7439105 83.6184703,119.026145 102.50006,90.6221786 C121.38165,62.2182122 111.940855,2.70513966 140.26324,1.35256983 C168.585626,-1.39444012e-13 169.934311,102.795307 144.309295,102.795307 C118.68428,102.795307 142.96061,8.11541898 180.723791,12.1731285 C218.486971,16.230838 213.092231,91.9747484 190.164586,102.795307 C167.236941,113.615866 198.256696,5.41027932 230.625136,16.230838 C262.993576,27.0513966 236.019876,100.090167 236.019876,100.090167" id="Path-4" stroke-width="6.075"></path>
                    <path d="M285.921221,64.9233518 C273.783056,54.1027932 248.158041,75.7439105 254.901466,93.3273182 C261.644891,110.910726 285.921221,78.0394458 285.921221,74.3913406 C285.921221,70.7432354 269.737001,78.0394458 280.526481,94.6798881 C291.315961,111.32033 323.684401,74.3913406 320.987031,66.2759217 C318.289661,58.1605027 316.940976,72.2195622 323.684401,78.0394458 C330.427826,83.8593294 347.960731,86.5644691 335.822566,96.0324579 C323.684401,105.500447 307.500181,94.6798881 316.940976,93.3273182 C326.381771,91.9747484 349.309416,90.6221786 362.796266,70.3336311 C376.283116,50.0450837 385.723911,37.8719552 376.283116,37.8719552 C366.842321,37.8719552 356.052841,77.0964803 353.355471,94.6798881 C350.658101,112.263296 377.631801,106.853017 388.421281,90.6221786 C399.210761,74.3913406 397.862076,52.7502234 385.723911,63.570782 C373.585746,74.3913406 372.237061,110.910726 389.769966,105.500447 C407.302871,100.090167 412.697611,50.0450837 418.092351,67.6284915 C423.487091,85.2118993 419.441036,105.500447 415.394981,105.500447 C411.348926,105.500447 422.138406,70.3336311 428.881831,66.2759217 C435.625256,62.2182122 436.973941,66.2759217 436.973941,66.2759217" id="Path-11" stroke-width="5.4"></path>
                    <path d="M343.914676,56.8079328 L395.164706,44.6348044" id="Path-12" stroke-width="6.075"></path>
                </g>
                <g id="badge" transform="translate(313.089577, 0.000000)">
                    <rect id="Rectangle-3" fill="#E04059" x="0" y="0" width="146.408795" height="47.7428372" rx="2.25"></rect>
                    <text id="BIZNES" font-family="Avenir-HeavyOblique, Avenir" font-size="31.5" font-style="italic" font-weight="600" fill="#FFFFFF">
                        <tspan x="18.9221189" y="34.2734684">BIZNES</tspan>
                    </text>
                </g>
            </g>
        </g>
    </g>
</svg>